<svg width="500" height="500" viewBox="0 0 500 500" fill="none" xmlns="http://www.w3.org/2000/svg">
<g clip-path="url(#clip0_442_16608)">
<path opacity="0.4" d="M376.572 385.722C451.077 311.217 451.077 190.421 376.572 115.915C302.067 41.4104 181.271 41.4104 106.766 115.915C32.2606 190.421 32.2606 311.217 106.766 385.722C181.271 460.227 302.067 460.227 376.572 385.722Z" fill="#78BBB6"/>
<path d="M140.127 155.686H67.2529V345.299H140.127V155.686Z" fill="#7FB7B7"/>
<path d="M132.236 196.93L187.008 235.281V343.142L132.236 344.474V196.93Z" fill="#7FB7B7"/>
<path d="M205.411 137.725H169.37V344.139H205.411V137.725Z" fill="#7C9292"/>
<path d="M200.632 129.575H173.71V149.07H200.632V129.575Z" fill="#877E7E"/>
<path d="M200.005 154.758H174.476V158.471H200.005V154.758Z" fill="#7FB7B7"/>
<path d="M200.005 169.844H174.476V173.789H200.005V169.844Z" fill="#7FB7B7"/>
<path d="M200.005 161.953H174.476V165.898H200.005V161.953Z" fill="#7FB7B7"/>
<path d="M200.005 177.27H174.476V181.215H200.005V177.27Z" fill="#7FB7B7"/>
<path d="M200.005 192.588H174.476V196.533H200.005V192.588Z" fill="#7FB7B7"/>
<path d="M200.005 185.161H174.476V189.106H200.005V185.161Z" fill="#7FB7B7"/>
<path d="M129.452 133.174H69.574V151.277H129.452V133.174Z" fill="#689F9F"/>
<path d="M126.899 148.724H124.114V156.383H126.899V148.724Z" fill="#689F9F"/>
<path d="M73.5189 148.724H70.7339V156.151H73.5189V148.724Z" fill="#689F9F"/>
<path d="M121.56 164.97H115.294V171.236H121.56V164.97Z" fill="#877E7E"/>
<path d="M130.612 164.97H124.114V171.236H130.612V164.97Z" fill="#877E7E"/>
<path d="M121.56 174.021H115.294V180.519H121.56V174.021Z" fill="#877E7E"/>
<path d="M130.612 174.021H124.114V180.519H130.612V174.021Z" fill="#877E7E"/>
<path d="M97.8878 164.97H91.6218V171.236H97.8878V164.97Z" fill="#877E7E"/>
<path d="M106.939 164.97H100.441V171.236H106.939V164.97Z" fill="#877E7E"/>
<path d="M97.8878 174.021H91.6218V180.519H97.8878V174.021Z" fill="#877E7E"/>
<path d="M106.939 174.021H100.441V180.519H106.939V174.021Z" fill="#877E7E"/>
<path d="M121.56 191.195H115.294V197.461H121.56V191.195Z" fill="#877E7E"/>
<path d="M130.612 191.195H124.114V197.461H130.612V191.195Z" fill="#877E7E"/>
<path d="M121.56 200.479H115.294V206.745H121.56V200.479Z" fill="#877E7E"/>
<path d="M130.612 200.479H124.114V206.745H130.612V200.479Z" fill="#877E7E"/>
<path d="M121.56 217.189H115.294V223.455H121.56V217.189Z" fill="#877E7E"/>
<path d="M130.612 217.189H124.114V223.455H130.612V217.189Z" fill="#877E7E"/>
<path d="M99.048 189.339H92.782V195.837H99.048V189.339Z" fill="#877E7E"/>
<path d="M108.099 189.339H101.601V195.837H108.099V189.339Z" fill="#877E7E"/>
<path d="M99.048 198.622H92.782V205.12H99.048V198.622Z" fill="#877E7E"/>
<path d="M108.099 198.622H101.601V205.12H108.099V198.622Z" fill="#877E7E"/>
<path d="M100.208 217.189H93.9419V223.455H100.208V217.189Z" fill="#877E7E"/>
<path d="M109.26 217.189H102.762V223.455H109.26V217.189Z" fill="#877E7E"/>
<path d="M272.12 107.217H241.252V125.409H272.12V107.217Z" fill="#A2CCCC"/>
<path d="M264.522 99.2869H250.275V113.281H264.522V99.2869Z" fill="#7C9292"/>
<path d="M375.354 200.452H373.264V216.873H375.354V200.452Z" fill="#67D3D3"/>
<path d="M380.37 193.883H379.534V221.798H380.37V193.883Z" fill="#67D3D3"/>
<path d="M236.408 119.99V335.999L272.196 352.048C279.002 352.048 270.23 242.01 276.522 240.488V119.99H236.408Z" fill="#7C9292"/>
<path d="M276.522 157.846V296.886C288.895 291.5 300.118 280.758 309.164 266.124V157.846H276.522Z" fill="#67D3D3"/>
<path d="M204.601 183.341V338.083L241.128 341.015V183.341H204.601Z" fill="#A2CCCC"/>
<path d="M222.862 154.025L241.123 183.341H204.601L222.862 154.025Z" fill="#7C9292"/>
<path d="M386.247 211.54H362.65V373.78H386.247V211.54Z" fill="#A2CCCC"/>
<path d="M311.524 387.886L258.432 340.164V245.919H311.524V387.886Z" fill="#D2EDED"/>
<path d="M348.885 162.481H320.569V388.071H348.885V162.481Z" fill="#D2EDED"/>
<path d="M309.164 160.728L320.569 160.623V388.072H309.164V160.728Z" fill="#A2CCCC"/>
<path d="M272.196 255.576H266.297V260.598H272.196V255.576Z" fill="#A2CCCC"/>
<path d="M272.196 264.461H266.297V271.414H272.196V264.461Z" fill="#A2CCCC"/>
<path d="M280.848 264.461H275.342V271.414H280.848V264.461Z" fill="#A2CCCC"/>
<path d="M272.196 275.277H266.297V280.299H272.196V275.277Z" fill="#A2CCCC"/>
<path d="M280.848 275.277H275.342V280.299H280.848V275.277Z" fill="#A2CCCC"/>
<path d="M294.613 255.576H289.894V260.598H294.613V255.576Z" fill="#A2CCCC"/>
<path d="M306.018 255.576H298.939V260.598H306.018V255.576Z" fill="#A2CCCC"/>
<path d="M294.613 264.461H289.894V271.414H294.613V264.461Z" fill="#A2CCCC"/>
<path d="M306.018 264.461H298.939V271.414H306.018V264.461Z" fill="#A2CCCC"/>
<path d="M294.613 275.277H289.894V280.299H294.613V275.277Z" fill="#A2CCCC"/>
<path d="M306.018 275.277H298.939V280.299H306.018V275.277Z" fill="#A2CCCC"/>
<path d="M294.613 284.934H289.894V289.956H294.613V284.934Z" fill="#A2CCCC"/>
<path d="M306.018 284.934H298.939V289.956H306.018V284.934Z" fill="#A2CCCC"/>
<path d="M335.121 170.207H328.042V176.774H335.121V170.207Z" fill="#A2CCCC"/>
<path d="M344.953 170.207H338.267V176.774H344.953V170.207Z" fill="#A2CCCC"/>
<path d="M335.121 181.023H328.042V186.431H335.121V181.023Z" fill="#A2CCCC"/>
<path d="M344.953 181.023H338.267V186.431H344.953V181.023Z" fill="#A2CCCC"/>
<path d="M335.121 190.68H328.042V195.315H335.121V190.68Z" fill="#A2CCCC"/>
<path d="M344.953 190.68H338.267V195.315H344.953V190.68Z" fill="#A2CCCC"/>
<path d="M335.121 199.565H328.042V204.973H335.121V199.565Z" fill="#A2CCCC"/>
<path d="M344.953 199.565H338.267V204.973H344.953V199.565Z" fill="#A2CCCC"/>
<path d="M362.65 212.338L348.885 225.305V373.779H362.65V212.338Z" fill="#7C9292"/>
<path d="M335.121 209.222H328.042V215.016H335.121V209.222Z" fill="#A2CCCC"/>
<path d="M344.953 209.222H338.267V215.016H344.953V209.222Z" fill="#A2CCCC"/>
<path d="M335.121 218.106H328.042V224.673H335.121V218.106Z" fill="#A2CCCC"/>
<path d="M344.953 218.106H338.267V224.673H344.953V218.106Z" fill="#A2CCCC"/>
<path d="M335.121 228.536H328.042V233.558H335.121V228.536Z" fill="#A2CCCC"/>
<path d="M344.953 228.536H338.267V233.558H344.953V228.536Z" fill="#A2CCCC"/>
<path d="M335.121 237.034H328.042V243.215H335.121V237.034Z" fill="#A2CCCC"/>
<path d="M344.953 237.034H338.267V243.215H344.953V237.034Z" fill="#A2CCCC"/>
<path d="M335.121 249.009H328.042V253.644H335.121V249.009Z" fill="#A2CCCC"/>
<path d="M344.953 249.009H338.267V253.644H344.953V249.009Z" fill="#A2CCCC"/>
<path d="M335.121 258.666H328.042V263.688H335.121V258.666Z" fill="#A2CCCC"/>
<path d="M344.953 258.666H338.267V263.688H344.953V258.666Z" fill="#A2CCCC"/>
<path d="M335.121 268.323H328.042V273.345H335.121V268.323Z" fill="#A2CCCC"/>
<path d="M344.953 268.323H338.267V273.345H344.953V268.323Z" fill="#A2CCCC"/>
<path d="M335.121 277.208H328.042V283.775H335.121V277.208Z" fill="#A2CCCC"/>
<path d="M344.953 277.208H338.267V283.775H344.953V277.208Z" fill="#A2CCCC"/>
<path d="M335.121 285.706H328.042V292.659H335.121V285.706Z" fill="#A2CCCC"/>
<path d="M344.953 285.706H338.267V292.659H344.953V285.706Z" fill="#A2CCCC"/>
<path d="M335.121 296.909H328.042V302.317H335.121V296.909Z" fill="#A2CCCC"/>
<path d="M344.953 296.909H338.267V302.317H344.953V296.909Z" fill="#A2CCCC"/>
<path d="M335.121 306.179H328.042V311.201H335.121V306.179Z" fill="#A2CCCC"/>
<path d="M344.953 306.179H338.267V311.201H344.953V306.179Z" fill="#A2CCCC"/>
<path d="M335.121 315.064H328.042V322.017H335.121V315.064Z" fill="#A2CCCC"/>
<path d="M344.953 315.064H338.267V322.017H344.953V315.064Z" fill="#A2CCCC"/>
<path d="M376.808 219.265H370.909V225.059H376.808V219.265Z" fill="#D2EDED"/>
<path d="M376.808 228.922H370.909V235.875H376.808V228.922Z" fill="#D2EDED"/>
<path d="M376.808 239.352H370.909V245.533H376.808V239.352Z" fill="#D2EDED"/>
<path d="M376.808 249.395H370.909V254.03H376.808V249.395Z" fill="#D2EDED"/>
<path d="M376.808 257.894H370.909V264.847H376.808V257.894Z" fill="#D2EDED"/>
<path d="M417.708 258.666H386.246V340.945H417.708V258.666Z" fill="#7C9292"/>
<path d="M408.27 266.006H402.371V272.959H408.27V266.006Z" fill="#A2CCCC"/>
<path d="M408.27 276.435H402.371V282.616H408.27V276.435Z" fill="#A2CCCC"/>
<path d="M408.27 286.479H402.371V291.114H408.27V286.479Z" fill="#A2CCCC"/>
<path d="M408.27 294.977H402.371V301.93H408.27V294.977Z" fill="#A2CCCC"/>
<path d="M309.164 245.919L285.013 209.053L258.407 246.103" fill="#62A5A5"/>
<path d="M349.004 162.481L333.174 143.633L320.376 162.481H349.004Z" fill="#62A5A5"/>
<path d="M320.376 162.41L333.511 143.562L311.283 160.728L320.376 162.41Z" fill="#A2CCCC"/>
<path d="M304.303 134.769H301.795V163.916H304.303V134.769Z" fill="#67D3D3"/>
<path d="M283.405 149.547H281.733V163.094H283.405V149.547Z" fill="#67D3D3"/>
<path d="M298.452 147.084H296.362V161.452H298.452V147.084Z" fill="#67D3D3"/>
<path d="M258.823 87.1479H255.499V106.75H258.823V87.1479Z" fill="#7C9292"/>
<path d="M184.901 338.55C184.146 334.732 180.782 331.852 176.743 331.852C175.831 331.852 174.955 332.004 174.134 332.275V218.654H174.098L158.398 182.609C158.358 182.908 158.254 183.531 158.254 183.531L157.695 184.87C157.694 184.867 157.688 184.848 157.688 184.848C157.685 184.871 157.583 185.128 157.413 185.545L143.592 218.636H143.254V265.805H136.024V253.12H134.756V265.805H131.373V244.664H129.682V265.805H123.179V254.477H110.655V265.805H106.427V338.55H184.901Z" fill="#ABE0E0"/>
<path d="M224.662 219.643H192.062V337.505H224.662V219.643Z" fill="#D2EDED"/>
<path d="M217.557 225.913H192.062V233.018H217.557V225.913Z" fill="#85BBBB"/>
<path d="M131.042 276.066H105.547V283.171H131.042V276.066Z" fill="#62A5A5"/>
<path d="M131.46 290.896H105.965V298.001H131.46V290.896Z" fill="#62A5A5"/>
<path d="M217.348 240.75H191.853V247.855H217.348V240.75Z" fill="#85BBBB"/>
<path d="M216.93 257.468H191.435V264.573H216.93V257.468Z" fill="#85BBBB"/>
<path d="M217.348 273.768H191.853V280.873H217.348V273.768Z" fill="#85BBBB"/>
<path d="M151.94 219.643H149.014V309.92H151.94V219.643Z" fill="#62A5A5"/>
<path d="M159.463 219.643H156.537V309.92H159.463V219.643Z" fill="#62A5A5"/>
<path d="M167.822 220.061H164.896V310.338H167.822V220.061Z" fill="#62A5A5"/>
<path d="M131.459 238.451H126.026V265.618H131.459V238.451Z" fill="#85BBBB"/>
<path d="M132.035 306.308H105.945V313.579H132.035V306.308Z" fill="#62A5A5"/>
<path d="M245.151 228.794H238.167V302.826H245.151V228.794Z" fill="#D2EDED"/>
<path opacity="0.51" d="M425.546 146.481H367.406C361.788 146.481 357.192 141.885 357.192 136.267C357.192 130.65 361.788 126.053 367.406 126.053H425.546C431.164 126.053 435.76 130.649 435.76 136.267C435.76 141.885 431.164 146.481 425.546 146.481Z" fill="#008080"/>
<path opacity="0.51" d="M369.763 94.6268H306.909C302.588 94.6268 299.052 91.0908 299.052 86.7698C299.052 82.4488 302.587 78.9128 306.909 78.9128H369.763C374.084 78.9128 377.62 82.4478 377.62 86.7698C377.62 91.0908 374.085 94.6268 369.763 94.6268Z" fill="#008080"/>
<path opacity="0.51" d="M169.024 99.2379H126.072C123.767 99.2379 121.882 97.3519 121.882 95.0479C121.882 92.7429 123.768 90.8579 126.072 90.8579H169.024C171.329 90.8579 173.214 92.7439 173.214 95.0479C173.214 97.3519 171.328 99.2379 169.024 99.2379Z" fill="#008080"/>
<path d="M203.462 438.883H158.093C156.5 438.883 155.197 437.58 155.197 435.987V433.778C155.197 432.185 156.5 430.882 158.093 430.882H203.462C205.055 430.882 206.358 432.185 206.358 433.778V435.987C206.359 437.58 205.055 438.883 203.462 438.883Z" fill="#008080"/>
<path d="M272.196 284.934H266.297V289.956H272.196V284.934Z" fill="#A2CCCC"/>
<path d="M280.848 284.934H275.342V289.956H280.848V284.934Z" fill="#A2CCCC"/>
<path d="M273.377 302.316H267.084V307.338H273.377V302.316Z" fill="#A2CCCC"/>
<path d="M283.995 302.316H277.309V307.338H283.995V302.316Z" fill="#A2CCCC"/>
<path d="M273.377 311.201H267.084V317.768H273.377V311.201Z" fill="#A2CCCC"/>
<path d="M283.995 311.201H277.309V317.768H283.995V311.201Z" fill="#A2CCCC"/>
<path d="M273.377 322.017H267.084V326.652H273.377V322.017Z" fill="#A2CCCC"/>
<path d="M283.995 322.017H277.309V326.652H283.995V322.017Z" fill="#A2CCCC"/>
<path d="M273.377 331.674H267.084V337.468H273.377V331.674Z" fill="#A2CCCC"/>
<path d="M283.995 331.674H277.309V337.468H283.995V331.674Z" fill="#A2CCCC"/>
<path d="M294.613 300.385H289.107V306.179H294.613V300.385Z" fill="#A2CCCC"/>
<path d="M304.051 300.385H297.759V306.179H304.051V300.385Z" fill="#A2CCCC"/>
<path d="M294.613 310.428H289.107V316.222H294.613V310.428Z" fill="#A2CCCC"/>
<path d="M304.051 310.428H297.759V316.222H304.051V310.428Z" fill="#A2CCCC"/>
<path d="M294.613 319.699H289.107V325.88H294.613V319.699Z" fill="#A2CCCC"/>
<path d="M304.051 319.699H297.759V325.88H304.051V319.699Z" fill="#A2CCCC"/>
<path d="M294.613 328.97H289.107V335.537H294.613V328.97Z" fill="#A2CCCC"/>
<path d="M304.051 328.97H297.759V335.537H304.051V328.97Z" fill="#A2CCCC"/>
<path d="M445.801 372.782H67.052C57.69 372.782 50.03 365.122 50.03 355.76V354.341C50.03 344.979 57.69 337.319 67.052 337.319H445.8C455.162 337.319 462.822 344.979 462.822 354.341V355.76C462.823 365.122 455.163 372.782 445.801 372.782Z" fill="#008080" fill-opacity="0.7"/>
<path d="M468.496 395.475C468.496 402.898 465.462 409.631 460.584 414.521C455.694 419.398 448.948 422.433 441.538 422.433H71.302C68.506 422.433 65.798 421.994 63.252 421.192C52.331 417.756 44.356 407.5 44.356 395.476C44.356 388.066 47.39 381.333 52.268 376.443C57.158 371.565 63.891 368.531 71.301 368.531H441.537C456.371 368.529 468.496 380.654 468.496 395.475Z" fill="#008080" fill-opacity="0.7"/>
<path opacity="0.25" d="M468.375 393.092C467.155 379.377 455.563 368.526 441.545 368.526H71.308C57.29 368.526 45.697 379.377 44.478 393.092H468.375Z" fill="#FEFFE9"/>
<path d="M394.024 445.127H118.829C109.857 445.127 102.516 437.786 102.516 428.814C102.516 419.842 109.857 412.501 118.829 412.501H394.024C402.996 412.501 410.337 419.842 410.337 428.814C410.337 437.786 402.996 445.127 394.024 445.127Z" fill="#008080" fill-opacity="0.7"/>
<path d="M398.111 398.317H352.742C351.149 398.317 349.846 397.014 349.846 395.421V393.212C349.846 391.619 351.149 390.316 352.742 390.316H398.111C399.704 390.316 401.007 391.619 401.007 393.212V395.421C401.008 397.013 399.704 398.317 398.111 398.317Z" fill="#008080"/>
<path d="M462.805 356.104C462.807 355.988 462.823 355.876 462.823 355.76V354.342C462.823 344.98 455.163 337.32 445.801 337.32H67.052C57.69 337.32 50.03 344.98 50.03 354.342V355.76C50.03 355.876 50.045 355.989 50.047 356.104H462.805Z" fill="#008080"/>
<path d="M217.348 288.396H191.853V295.501H217.348V288.396Z" fill="#85BBBB"/>
<path d="M222 452.333H168.571C165.834 452.333 163.595 450.094 163.595 447.357C163.595 444.62 165.834 442.381 168.571 442.381H222C224.737 442.381 226.976 444.62 226.976 447.357C226.976 450.094 224.737 452.333 222 452.333Z" fill="#008080"/>
<path d="M271.762 450.762H246.095C244.222 450.762 242.69 449.23 242.69 447.357C242.69 445.484 244.222 443.952 246.095 443.952H271.762C273.635 443.952 275.167 445.484 275.167 447.357C275.167 449.23 273.634 450.762 271.762 450.762Z" fill="#008080"/>
<path opacity="0.52" d="M86.2619 259.524H85.2139V336H86.2619V259.524Z" fill="#003737"/>
<path opacity="0.52" d="M165.357 261.619H164.309V338.095H165.357V261.619Z" fill="#003737"/>
<path opacity="0.52" d="M311.5 260.571H310.452V337.047H311.5V260.571Z" fill="#003737"/>
<path opacity="0.52" d="M370.691 260.571H369.643V337.047H370.691V260.571Z" fill="#003737"/>
<path opacity="0.52" d="M428.31 262.143H427.262V338.619H428.31V262.143Z" fill="#003737"/>
<path d="M66.8809 408.286H47.4999C45.7709 408.286 44.3569 406.872 44.3569 405.143C44.3569 403.414 45.7709 402 47.4999 402H66.8809C68.6099 402 70.0239 403.414 70.0239 405.143C70.0239 406.871 68.6089 408.286 66.8809 408.286Z" fill="#008080"/>
<path d="M471.786 387.857H437.738C435.433 387.857 433.548 385.971 433.548 383.667C433.548 381.362 435.434 379.477 437.738 379.477H471.786C474.091 379.477 475.976 381.363 475.976 383.667C475.976 385.971 474.09 387.857 471.786 387.857Z" fill="#008080"/>
<path d="M217.518 436.31H75.1918C70.4608 436.31 66.5898 432.439 66.5898 427.708C66.5898 422.977 70.4608 419.106 75.1918 419.106H217.517C222.248 419.106 226.119 422.977 226.119 427.708C226.12 432.439 222.249 436.31 217.518 436.31Z" fill="#008080"/>
<path d="M83.4008 382.671V346.098L102.238 324.651H152.099L151.918 420.582H83.2288L83.4008 382.671Z" fill="#A2CCCC"/>
<path d="M141.794 324.651V420.582H152.004L152.099 324.651H141.794Z" fill="#238880"/>
<path d="M102.238 324.651L83.1987 346.195H130.797L151.74 324.651H102.238Z" fill="#000F0F"/>
<path d="M96.5258 324.651L77.4868 346.195H125.085L146.027 324.651H96.5258Z" fill="#003737"/>
<path d="M131.367 345.83H77.3179V347.383H131.367V345.83Z" fill="#FAFFFF"/>
<path d="M131.41 346.462H82.6958V420.582H131.41V346.462Z" fill="#FAFFFF"/>
<path d="M122.783 354.069H114.428V370.247H122.783V354.069Z" fill="#62A5A5"/>
<path d="M123.804 371.163H113.405V353.152H123.804V371.163ZM115.449 369.331H121.76V354.985H115.449V369.331Z" fill="#A2CCCC"/>
<path d="M127.214 368.994H109.997V374.007H127.214V368.994Z" fill="#003737"/>
<path d="M122.656 359.879H114.048V362.386H122.656V359.879Z" fill="#238880"/>
<path d="M122.087 385.003H113.732V401.181H122.087V385.003Z" fill="#62A5A5"/>
<path d="M123.109 402.098H112.71V384.087H123.109V402.098ZM114.754 400.265H121.065V385.919H114.754V400.265Z" fill="#A2CCCC"/>
<path d="M126.519 399.928H109.302V404.941H126.519V399.928Z" fill="#003737"/>
<path d="M121.961 390.813H113.353V393.32H121.961V390.813Z" fill="#238880"/>
<path d="M98.8918 354.885H90.9878V370.189H98.8918V354.885Z" fill="#62A5A5"/>
<path d="M99.858 371.056H90.021V354.018H99.858V371.056ZM91.954 369.323H97.924V355.751H91.954V369.323Z" fill="#A2CCCC"/>
<path d="M103.083 369.004H86.7959V373.746H103.083V369.004Z" fill="#003737"/>
<path d="M98.7709 360.382H90.6279V362.753H98.7709V360.382Z" fill="#238880"/>
<path d="M102.431 420.755V396.077C102.431 392.923 99.8499 390.342 96.6959 390.342C93.5419 390.342 90.9609 392.923 90.9609 396.077V420.755H102.431Z" fill="#003737"/>
<path d="M176.465 380.958H146.226V420.582H176.465V380.958Z" fill="#A2CCCC"/>
<path d="M169.137 380.958H146.226V420.582H169.137V380.958Z" fill="#FAFFFF"/>
<path d="M153.756 378.873L143.62 390.343H168.96L180.111 378.873H153.756Z" fill="#000F0F"/>
<path d="M147.153 378.96L137.017 390.43H162.357L173.507 378.96H147.153Z" fill="#003737"/>
<path d="M161.843 420.755V405.102C161.843 403.101 160.206 401.464 158.205 401.464C156.204 401.464 154.567 403.101 154.567 405.102V420.755H161.843Z" fill="#003737"/>
<path d="M408.97 323.392H361.901V424.473H408.97V323.392Z" fill="#003737"/>
<path d="M413.679 326.305L386.408 284.677L356.365 326.513" fill="#003737"/>
<path d="M387.925 320.949V312.128C387.925 310.768 386.812 309.655 385.452 309.655C384.092 309.655 382.979 310.768 382.979 312.128V320.949H387.925Z" fill="#A2CCCC"/>
<path d="M362.295 334.175H408.43" stroke="#A39A86" stroke-miterlimit="10"/>
<path d="M362.295 358.623H408.43" stroke="#A39A86" stroke-miterlimit="10"/>
<path d="M362.689 391.351H408.824" stroke="#A39A86" stroke-miterlimit="10"/>
<path d="M390.151 381.008H379.785V403.469H390.151V381.008Z" fill="#FAFFFF"/>
<path d="M379.785 381.008H374.602V403.469H379.785V381.008Z" fill="#A2CCCC"/>
<path d="M393.606 381.008H388.423V403.469H393.606V381.008Z" fill="#A2CCCC"/>
<path d="M395.761 381.191C395.175 375.461 390.334 370.99 384.45 370.99C378.565 370.99 373.724 375.461 373.138 381.191H395.761Z" fill="#A2CCCC"/>
<path d="M384.672 376.86H383.489V404.068H384.672V376.86Z" fill="#A2CCCC"/>
<path d="M392.952 392.83H375.504V394.309H392.952V392.83Z" fill="#A2CCCC"/>
<path d="M390.742 342.858H380.376V365.319H390.742V342.858Z" fill="#FAFFFF"/>
<path d="M380.376 342.858H375.193V365.319H380.376V342.858Z" fill="#A2CCCC"/>
<path d="M394.198 342.858H389.015V365.319H394.198V342.858Z" fill="#A2CCCC"/>
<path d="M396.353 343.041C395.767 337.311 390.926 332.84 385.041 332.84C379.156 332.84 374.315 337.311 373.729 343.041H396.353Z" fill="#A2CCCC"/>
<path d="M385.264 338.71H384.081V365.918H385.264V338.71Z" fill="#A2CCCC"/>
<path d="M393.545 354.68H376.096V356.159H393.545V354.68Z" fill="#A2CCCC"/>
<path d="M387.926 407.617H382.011V424.326H387.926V407.617Z" fill="#A2CCCC"/>
<path d="M374.765 407.617H368.407V421.073H374.765V407.617Z" fill="#FAFFFF"/>
<path d="M401.796 407.825H395.438V421.281H401.796V407.825Z" fill="#FAFFFF"/>
<path d="M421.935 433.346H352.141C349.376 433.346 347.113 431.084 347.113 428.319C347.113 425.554 349.375 423.291 352.141 423.291H421.935C424.7 423.291 426.962 425.553 426.962 428.319C426.963 431.083 424.7 433.346 421.935 433.346Z" fill="#008080"/>
<path d="M351.804 437.215H171.897C167.831 437.215 164.504 433.888 164.504 429.822C164.504 425.756 167.831 422.429 171.897 422.429H351.804C355.87 422.429 359.197 425.756 359.197 429.822C359.197 433.888 355.87 437.215 351.804 437.215Z" fill="#012C2C"/>
<path d="M247.773 320.018L179.5 350.226" stroke="#003737" stroke-width="2" stroke-miterlimit="10" stroke-linecap="round" stroke-linejoin="round"/>
<path d="M278.333 321.277L346.606 351.485" stroke="#003737" stroke-width="2" stroke-miterlimit="10" stroke-linecap="round" stroke-linejoin="round"/>
<path d="M289.387 308.691H227.616V357.149H289.387V308.691Z" fill="#A2CCCC"/>
<path d="M331.001 346.45H188.603V425.746H331.001V346.45Z" fill="#A2CCCC"/>
<path d="M295.816 314.984L255.575 281L218.513 314.984" fill="#A2CCCC"/>
<path d="M295.816 314.984L255.575 281L218.513 314.984" stroke="#003737" stroke-width="2" stroke-miterlimit="10" stroke-linecap="round" stroke-linejoin="round"/>
<path d="M262.776 332.79V308.745C262.776 305.672 260.178 303.157 257.003 303.157C253.828 303.157 251.23 305.672 251.23 308.745V332.79H262.776Z" fill="#003737"/>
<path d="M188.603 346.45H227.616V328.829L188.603 346.45Z" fill="#003737"/>
<path d="M336.853 348.338H289.387V325.682L336.853 348.338Z" fill="#003737"/>
<path d="M266.629 313.096H246.472V314.355H266.629V313.096Z" fill="#A2CCCC"/>
<path d="M241.27 316.872H234.768V330.717H241.27V316.872Z" fill="#003737"/>
<path d="M277.683 318.13H271.181V331.975H277.683V318.13Z" fill="#003737"/>
<path d="M275.082 374.77H245.172V425.746H275.082V374.77Z" fill="#003737"/>
<path d="M229.401 357.744H188.204V412.53H229.401V357.744Z" fill="#FAFFFF"/>
<path d="M300.509 357.744H291.589V412.53H300.509V357.744Z" fill="#FAFFFF"/>
<path d="M318.065 357.744H309.145V412.53H318.065V357.744Z" fill="#FAFFFF"/>
<path d="M331.719 357.744H322.799V412.53H331.719V357.744Z" fill="#FAFFFF"/>
<path d="M269.88 379.805H249.073V425.746H269.88V379.805Z" stroke="#A2CCCC" stroke-miterlimit="10"/>
<path d="M236.719 364.072H187.953V365.96H236.719V364.072Z" fill="#A2CCCC"/>
<path d="M217.863 352.744H215.912V418.824H217.863V352.744Z" fill="#A2CCCC"/>
<path d="M321.247 296.104H310.844V342.674H321.247V296.104Z" fill="#003737"/>
<path d="M336.119 346.476H188.579V348.92H336.119V346.476Z" fill="#238880"/>
<path d="M331.056 352.762H188.405V353.984H331.056V352.762Z" fill="#238880"/>
<path d="M291.421 364.111H229.786V366.905H291.421V364.111Z" fill="#238880"/>
<path d="M281.293 371.095H234.325V375.635H281.293V371.095Z" fill="#238880"/>
<path d="M420.985 405.725H418.64V426.834H420.985V405.725Z" fill="#003737"/>
<path d="M418.054 412.175C427.445 412.175 435.058 404.562 435.058 395.171C435.058 385.78 427.445 378.167 418.054 378.167C408.663 378.167 401.05 385.78 401.05 395.171C401.05 404.562 408.663 412.175 418.054 412.175Z" fill="#35F2F2"/>
<path d="M437.708 406.464C437.708 410.111 434.752 413.066 431.106 413.066C427.46 413.066 424.504 410.11 424.504 406.464C424.504 402.818 427.46 399.862 431.106 399.862C434.752 399.862 437.708 402.818 437.708 406.464Z" fill="#008080"/>
<path d="M344.026 412.03H341.681V433.139H344.026V412.03Z" fill="#003737"/>
<path d="M341.095 418.48C350.486 418.48 358.099 410.867 358.099 401.476C358.099 392.085 350.486 384.472 341.095 384.472C331.704 384.472 324.091 392.085 324.091 401.476C324.091 410.867 331.704 418.48 341.095 418.48Z" fill="#35F2F2"/>
<path d="M360.749 412.769C360.749 416.416 357.793 419.371 354.147 419.371C350.501 419.371 347.545 416.415 347.545 412.769C347.545 409.123 350.501 406.167 354.147 406.167C357.794 406.167 360.749 409.123 360.749 412.769Z" fill="#008080"/>
<path d="M184.788 406.007H182.443V427.116H184.788V406.007Z" fill="#003737"/>
<path d="M181.857 412.456C191.248 412.456 198.861 404.843 198.861 395.452C198.861 386.061 191.248 378.448 181.857 378.448C172.466 378.448 164.853 386.061 164.853 395.452C164.853 404.843 172.466 412.456 181.857 412.456Z" fill="#35F2F2"/>
<path d="M201.511 406.745C201.511 410.392 198.555 413.347 194.909 413.347C191.263 413.347 188.307 410.391 188.307 406.745C188.307 403.099 191.263 400.143 194.909 400.143C198.555 400.143 201.511 403.099 201.511 406.745Z" fill="#008080"/>
<path d="M59.074 384.269H56.729V405.378H59.074V384.269Z" fill="#003737"/>
<path d="M73.007 371.505C74.408 382.629 65.053 391.981 53.93 390.578C46.351 389.622 40.232 383.501 39.278 375.922C37.878 364.798 47.2319 355.447 58.3549 356.849C65.934 357.806 72.053 363.926 73.007 371.505Z" fill="#35F2F2"/>
<path d="M75.6299 383.497C76.6969 388.313 72.5009 392.509 67.6849 391.442C65.2579 390.904 63.2989 388.946 62.7609 386.519C61.6929 381.702 65.8899 377.505 70.7069 378.573C73.1329 379.111 75.0919 381.07 75.6299 383.497Z" fill="#008080"/>
<path d="M183.98 323.609H182.315V338.592H183.98V323.609Z" fill="#003737"/>
<path d="M193.869 314.549C194.863 322.445 188.223 329.083 180.328 328.087C174.949 327.409 170.605 323.064 169.928 317.684C168.934 309.789 175.574 303.151 183.469 304.146C188.848 304.825 193.192 309.17 193.869 314.549Z" fill="#35F2F2"/>
<path d="M195.73 323.061C196.487 326.48 193.509 329.458 190.091 328.7C188.368 328.318 186.978 326.928 186.596 325.206C185.838 321.787 188.817 318.808 192.236 319.566C193.958 319.948 195.349 321.338 195.73 323.061Z" fill="#008080"/>
<path d="M342.654 324.923H340.873V340.949H342.654V324.923Z" fill="#003737"/>
<path d="M353.231 315.233C354.294 323.678 347.192 330.779 338.747 329.714C332.993 328.988 328.347 324.341 327.623 318.587C326.56 310.142 333.662 303.042 342.106 304.107C347.861 304.832 352.507 309.479 353.231 315.233Z" fill="#35F2F2"/>
<path d="M355.222 324.337C356.032 327.994 352.847 331.179 349.19 330.369C347.347 329.961 345.86 328.474 345.452 326.631C344.641 322.974 347.827 319.787 351.485 320.598C353.327 321.007 354.814 322.494 355.222 324.337Z" fill="#008080"/>
<path d="M438.027 324.132H436.362V339.115H438.027V324.132Z" fill="#003737"/>
<path d="M447.917 315.073C448.911 322.969 442.271 329.607 434.376 328.611C428.997 327.933 424.653 323.588 423.976 318.208C422.982 310.312 429.622 303.675 437.517 304.67C442.896 305.349 447.239 309.694 447.917 315.073Z" fill="#35F2F2"/>
<path d="M449.778 323.585C450.535 327.004 447.557 329.982 444.139 329.224C442.416 328.842 441.026 327.452 440.644 325.729C439.886 322.31 442.865 319.331 446.284 320.089C448.006 320.472 449.396 321.862 449.778 323.585Z" fill="#008080"/>
<path d="M81.5 155.5H67.5V335H81.5V155.5Z" fill="#67D3D3"/>
<path d="M68.4799 326.751H66.8149V341.734H68.4799V326.751Z" fill="#003737"/>
<path d="M78.369 317.692C79.363 325.588 72.723 332.226 64.828 331.23C59.449 330.552 55.105 326.207 54.428 320.827C53.434 312.932 60.074 306.294 67.969 307.289C73.348 307.968 77.692 312.313 78.369 317.692Z" fill="#35F2F2"/>
<path d="M80.2301 326.204C80.9871 329.623 78.0091 332.601 74.5911 331.843C72.8681 331.461 71.4781 330.071 71.0961 328.348C70.3381 324.929 73.3171 321.95 76.7361 322.708C78.4591 323.091 79.8491 324.481 80.2301 326.204Z" fill="#008080"/>
<path opacity="0.52" d="M428.31 269.988H65.0068V271.124H428.31V269.988Z" fill="#686052"/>
<path opacity="0.52" d="M428.31 274.178H65.0068V275.314H428.31V274.178Z" fill="#686052"/>
</g>
<defs>
<clipPath id="clip0_442_16608">
<rect width="500" height="500" fill="white"/>
</clipPath>
</defs>
</svg>
