<?xml version="1.0" encoding="UTF-8"?>
<svg version="1.1" xmlns="http://www.w3.org/2000/svg" width="529" height="139">
<path d="M0 0 C0.76425293 0.16048828 1.52850586 0.32097656 2.31591797 0.48632812 C4.61021775 0.97539516 6.89959366 1.48188893 9.1875 2 C9.87038086 2.1537207 10.55326172 2.30744141 11.25683594 2.46582031 C15.77485551 3.54558452 19.79321632 5.07939318 24 7 C24.64889496 13.6421609 22.46690063 18.07943044 19.5 23.9375 C18.85611328 25.24944336 18.85611328 25.24944336 18.19921875 26.58789062 C17.14491764 28.73163621 16.07842875 30.86831859 15 33 C11.68693817 33.04491364 9.1734885 32.90815017 6.0625 31.75 C-5.96136352 27.50628346 -17.02780049 24.81175825 -29.75 24.75 C-31.32007813 24.7190625 -31.32007813 24.7190625 -32.921875 24.6875 C-38.82284673 24.65799514 -43.66950457 25.15122158 -49.16894531 27.35253906 C-51 28 -51 28 -54 28 C-54 28.66 -54 29.32 -54 30 C-54.639375 30.598125 -55.27875 31.19625 -55.9375 31.8125 C-58.3252489 34.34496096 -59 35.52491945 -59 39 C-54.80736067 45.46406924 -49.18383935 46.36144741 -42 48 C-34.97198527 49.23634186 -28.00037274 49.96461685 -20.875 50.25 C-14.7291705 50.67042366 -9.0305289 52.14853939 -3.125 53.8125 C-2.23280762 54.0609668 -1.34061523 54.30943359 -0.42138672 54.56542969 C9.81539345 57.58246458 19.65879834 63.09044343 25.4921875 72.375 C29.92840617 81.95982283 30.37056071 92.52805594 27.05859375 102.52734375 C25.27754305 106.68751014 22.96993109 110.57506553 20 114 C19.34 114 18.68 114 18 114 C17.75894531 114.59039062 17.51789063 115.18078125 17.26953125 115.7890625 C12.84148949 123.50066753 2.41838425 126.08671052 -5.5625 128.375 C-6.43624268 128.62556152 -7.30998535 128.87612305 -8.21020508 129.13427734 C-33.556051 135.95806762 -66.93928159 131.69963507 -90 119 C-91.53515625 117.1171875 -91.53515625 117.1171875 -92 115 C-91.20703125 112.66796875 -91.20703125 112.66796875 -89.8125 110.1875 C-89.09900391 108.87072266 -89.09900391 108.87072266 -88.37109375 107.52734375 C-87.91863281 106.69332031 -87.46617187 105.85929687 -87 105 C-86.43883356 103.7586318 -85.89398344 102.50958683 -85.375 101.25 C-84.03947044 98.09329376 -82.56211763 95.04984871 -81 92 C-76.01890788 92.28194861 -72.46454714 93.12584085 -68 95.375 C-60.94198685 98.77621525 -53.68277059 99.84838973 -46 101 C-45.14148438 101.13277344 -44.28296875 101.26554687 -43.3984375 101.40234375 C-30.78938373 103.07590907 -16.55522108 102.77761054 -5 97 C-2.21578097 94.40810289 -2.21578097 94.40810289 -1 91 C-1.44955657 86.65428652 -2.26434796 84.69792629 -5.4375 81.6875 C-13.85477017 77.70037202 -24.100568 77.37132213 -33.25 76.0625 C-73.77576217 70.08693233 -73.77576217 70.08693233 -84.8125 55.625 C-89.33186666 45.63482107 -89.08453592 34.32899663 -86.1484375 23.91796875 C-82.44087116 14.49772366 -74.88271984 8.2894163 -65.96875 3.85644531 C-45.11615925 -5.2148454 -21.8243238 -4.66385461 0 0 Z " fill="#050505" transform="translate(366,6)"/>
<path d="M0 0 C1.59643156 3.19286312 1.64842067 6.54413161 1 10 C-1.3125 11.75 -1.3125 11.75 -4 13 C-5.00642948 14.32848691 -6.00692179 15.66150329 -7 17 C-8.32467746 17.6837045 -9.65863633 18.34964186 -11 19 C-11.639375 19.70125 -12.27875 20.4025 -12.9375 21.125 C-15 23 -15 23 -17.38671875 23.3203125 C-20.60740781 22.92554942 -21.59047802 22.00608394 -23.875 19.75 C-30.93157469 13.23320061 -38.02983909 10 -47.76953125 10 C-60.12217586 10.82926845 -70.07380797 15.16428835 -78.3125 24.5625 C-84.65816226 32.99805103 -87.4781479 43.51993135 -86 54 C-84.42291648 60.54167806 -82.56487741 65.94602859 -78 71 C-78 71.99 -78 72.98 -78 74 C-77.401875 74.268125 -76.80375 74.53625 -76.1875 74.8125 C-74 76 -74 76 -72.6953125 77.37890625 C-66.05931763 83.72438521 -57.29479151 85.85265975 -48.38671875 86.09765625 C-38.93670627 85.82516454 -31.55960816 83.89596199 -24 78 C-22.33499578 76.1779888 -20.82311606 74.3007986 -19.31640625 72.34765625 C-18 71 -18 71 -15.125 70.5625 C-14.42375 70.706875 -13.7225 70.85125 -13 71 C-12.67 71.99 -12.34 72.98 -12 74 C-11.1028125 74.2165625 -11.1028125 74.2165625 -10.1875 74.4375 C-7.24510759 75.19411519 -6.09788815 76.83853948 -4 79 C-3.15179687 79.4125 -2.30359375 79.825 -1.4296875 80.25 C1 82 1 82 1.83984375 84.8203125 C1.98959445 89.88787621 2.086269 93.52547469 -1 97.71484375 C-5.55951722 101.89208437 -10.48155998 105.24077999 -16 108 C-16.84884766 108.50273437 -16.84884766 108.50273437 -17.71484375 109.015625 C-32.63902913 117.47161164 -53.23237001 116.83954608 -69.51171875 113.12109375 C-76.6526476 110.82608078 -83.79614423 107.50996493 -89 102 C-90.485 101.01 -90.485 101.01 -92 100 C-92 99.34 -92 98.68 -92 98 C-92.58007812 97.75121094 -93.16015625 97.50242187 -93.7578125 97.24609375 C-102.95944618 92.13229385 -108.65339697 80.86184647 -111.48046875 71.15625 C-115.37397649 56.66633548 -116.30103356 44.27225867 -112.8125 29.5625 C-112.51883545 28.31907837 -112.51883545 28.31907837 -112.21923828 27.05053711 C-110.70788398 21.30681171 -108.32721305 16.88520994 -105 12 C-104.4946875 11.12085937 -103.989375 10.24171875 -103.46875 9.3359375 C-97.83951317 0.38305552 -90.15030238 -5.9396055 -81 -11 C-80.33484375 -11.39832031 -79.6696875 -11.79664063 -78.984375 -12.20703125 C-73.07481163 -15.52184936 -66.60461547 -16.74782383 -60 -18 C-59.23816406 -18.14566406 -58.47632813 -18.29132812 -57.69140625 -18.44140625 C-36.06115663 -21.67163256 -16.2388731 -13.78512148 0 0 Z " fill="#050505" transform="translate(528,19)"/>
<path d="M0 0 C0.99 0.495 0.99 0.495 2 1 C2 1.66 2 2.32 2 3 C2.66 3 3.32 3 4 3 C4 3.66 4 4.32 4 5 C4.66 5 5.32 5 6 5 C12.55212369 19.04735609 18.9568639 33.13919227 24.640625 47.5625 C26.25810723 51.65268495 27.94903089 55.70897697 29.6484375 59.765625 C33.24024495 68.3610486 36.80612752 76.9691366 40.25 85.625 C42.49419571 91.25916221 44.90597727 96.80180724 47.4375 102.3125 C49.43605322 106.68657904 51.27422716 111.09616661 53.015625 115.578125 C54.31976607 118.78672605 55.82382302 121.89037947 57.36328125 124.9921875 C58.12814494 127.40408895 57.68750787 128.61253486 57 131 C52.94354318 131.14863004 48.88814514 131.25733927 44.82958984 131.32958984 C43.45007719 131.35971304 42.07075533 131.40062275 40.69189453 131.45263672 C38.70689908 131.52562502 36.72049068 131.55629398 34.734375 131.5859375 C33.54038086 131.6173584 32.34638672 131.6487793 31.11621094 131.68115234 C28 131 28 131 25.66894531 128.18994141 C24.15327808 125.29296831 22.93008764 122.41783015 21.84375 119.3359375 C19.3189489 112.34597891 16.34601198 105.55874662 12.94921875 98.953125 C11.93964013 96.87580273 11.08816441 94.77714268 10.25 92.625 C8.33580116 87.72222986 6.21376052 82.92691192 4.0625 78.125 C1.25089093 71.84788899 -1.48199294 65.55242402 -4.08984375 59.1875 C-4.67920115 57.77101869 -5.31388609 56.37222781 -6 55 C-10.47699131 63.78816813 -14.58878068 72.68803787 -18.10546875 81.90625 C-19 84 -19 84 -21 87 C-21.48868098 88.33122256 -21.93437055 89.67863219 -22.34765625 91.03515625 C-24.05021932 96.32026257 -26.21055624 101.35530949 -28.4375 106.4375 C-29.20826648 108.20649356 -29.9778025 109.97602377 -30.74609375 111.74609375 C-31.12233887 112.61089355 -31.49858398 113.47569336 -31.88623047 114.36669922 C-33.34228127 117.80926037 -34.67861915 121.29413412 -35.99243164 124.79321289 C-37.14544875 127.31856341 -37.97561794 129.07076498 -40 131 C-43.1862793 131.45410156 -43.1862793 131.45410156 -47.07421875 131.390625 C-47.7580513 131.38496521 -48.44188385 131.37930542 -49.1464386 131.37347412 C-51.32750899 131.35110816 -53.50692753 131.30091765 -55.6875 131.25 C-57.16729395 131.229935 -58.6471137 131.21168422 -60.12695312 131.1953125 C-63.7518376 131.15124474 -67.37575756 131.08221822 -71 131 C-70.43031981 127.74776616 -69.6678386 124.9254642 -68.29296875 121.92578125 C-67.95555664 121.18062256 -67.61814453 120.43546387 -67.27050781 119.66772461 C-66.91311523 118.89050049 -66.55572266 118.11327637 -66.1875 117.3125 C-65.45563384 115.69594443 -64.72515242 114.07876118 -63.99609375 112.4609375 C-63.64788574 111.6884668 -63.29967773 110.91599609 -62.94091797 110.12011719 C-61.48266566 106.83431982 -60.16555967 103.49908256 -58.85546875 100.15234375 C-56.64192889 94.58311788 -54.11844106 89.20097649 -51.375 83.875 C-49.39605632 79.98327793 -48.18989278 76.20428783 -47 72 C-46.36561976 70.79494298 -45.69727609 69.60728919 -45 68.4375 C-43.15246221 65.26204442 -42.13262347 62.46865939 -41 59 C-40.4225 57.88625 -39.845 56.7725 -39.25 55.625 C-36.83050131 50.93890775 -35.09596214 46.01049711 -33.28662109 41.06811523 C-31.46193836 36.12468524 -29.39424533 31.35624565 -27.15234375 26.5859375 C-25.94012291 23.86563175 -24.92632404 21.12122199 -23.9375 18.3125 C-19.08160657 4.75082154 -19.08160657 4.75082154 -13.984375 0.8359375 C-9.61669312 -1.00399148 -4.6291715 -0.48509282 0 0 Z " fill="#060606" transform="translate(196,3)"/>
<path d="M0 0 C9.24 0 18.48 0 28 0 C28.09085929 10.93666341 28.16403549 21.87307057 28.20724869 32.81002808 C28.22800301 37.89009782 28.25609476 42.96989293 28.30175781 48.04980469 C28.34565392 52.96466722 28.36922814 57.87926788 28.37950897 62.79431152 C28.38682267 64.65673945 28.40110106 66.51915526 28.42292023 68.38146973 C28.62962753 86.7788886 26.71677828 102.59181667 13.578125 116.578125 C2.51901601 126.96698496 -9.64808066 131.00077257 -24.5625 131.5 C-39.69772562 131.02103716 -53.25250224 125.80720608 -64 115 C-67.57254855 110.96647744 -67.56457263 106.72521613 -67.41796875 101.53125 C-67 99 -67 99 -64.8125 96.4375 C-62.2402969 95.12281841 -59.68843868 94.0491468 -57 93 C-56.030625 92.29875 -55.06125 91.5975 -54.0625 90.875 C-50.64423371 88.78218391 -48.93226461 88.37441245 -45 89 C-43 92 -43 92 -43 95 C-42.38125 95.309375 -41.7625 95.61875 -41.125 95.9375 C-39.75 96.625 -38.375 97.3125 -37 98 C-37 98.66 -37 99.32 -37 100 C-28.22978251 101.52525522 -19.10140558 102.36947211 -11 98 C-6.01817272 93.90580341 -2.70140957 88.16279659 -1 82 C-0.39084576 75.72880432 -0.39358382 69.4798238 -0.390625 63.18359375 C-0.37562717 61.35798182 -0.35889667 59.53238337 -0.34051514 57.70680237 C-0.29700926 52.92783958 -0.27687987 48.14905978 -0.26177979 43.36993408 C-0.24214801 38.48284154 -0.20018496 33.59594488 -0.16015625 28.70898438 C-0.08503565 19.13935042 -0.03670128 9.5698585 0 0 Z " fill="#040404" transform="translate(67,4)"/>
<path d="M0 0 C0.76425293 0.16048828 1.52850586 0.32097656 2.31591797 0.48632812 C4.61021775 0.97539516 6.89959366 1.48188893 9.1875 2 C9.87038086 2.1537207 10.55326172 2.30744141 11.25683594 2.46582031 C15.77485551 3.54558452 19.79321632 5.07939318 24 7 C24.64889496 13.6421609 22.46690063 18.07943044 19.5 23.9375 C18.85611328 25.24944336 18.85611328 25.24944336 18.19921875 26.58789062 C17.14491764 28.73163621 16.07842875 30.86831859 15 33 C11.68693817 33.04491364 9.1734885 32.90815017 6.0625 31.75 C-5.96136352 27.50628346 -17.02780049 24.81175825 -29.75 24.75 C-31.32007813 24.7190625 -31.32007813 24.7190625 -32.921875 24.6875 C-38.82284673 24.65799514 -43.66950457 25.15122158 -49.16894531 27.35253906 C-51 28 -51 28 -54 28 C-54 28.66 -54 29.32 -54 30 C-54.639375 30.598125 -55.27875 31.19625 -55.9375 31.8125 C-58.3252489 34.34496096 -59 35.52491945 -59 39 C-54.80736067 45.46406924 -49.18383935 46.36144741 -42 48 C-34.97198527 49.23634186 -28.00037274 49.96461685 -20.875 50.25 C-14.7291705 50.67042366 -9.0305289 52.14853939 -3.125 53.8125 C-2.23280762 54.0609668 -1.34061523 54.30943359 -0.42138672 54.56542969 C9.81539345 57.58246458 19.65879834 63.09044343 25.4921875 72.375 C29.92840617 81.95982283 30.37056071 92.52805594 27.05859375 102.52734375 C25.27754305 106.68751014 22.96993109 110.57506553 20 114 C19.34 114 18.68 114 18 114 C17.75894531 114.59039062 17.51789063 115.18078125 17.26953125 115.7890625 C12.84148949 123.50066753 2.41838425 126.08671052 -5.5625 128.375 C-6.43624268 128.62556152 -7.30998535 128.87612305 -8.21020508 129.13427734 C-33.556051 135.95806762 -66.93928159 131.69963507 -90 119 C-91.53515625 117.1171875 -91.53515625 117.1171875 -92 115 C-91.20703125 112.66796875 -91.20703125 112.66796875 -89.8125 110.1875 C-89.09900391 108.87072266 -89.09900391 108.87072266 -88.37109375 107.52734375 C-87.91863281 106.69332031 -87.46617187 105.85929687 -87 105 C-86.43883356 103.7586318 -85.89398344 102.50958683 -85.375 101.25 C-84.03947044 98.09329376 -82.56211763 95.04984871 -81 92 C-76.01890788 92.28194861 -72.46454714 93.12584085 -68 95.375 C-60.94198685 98.77621525 -53.68277059 99.84838973 -46 101 C-45.14148438 101.13277344 -44.28296875 101.26554687 -43.3984375 101.40234375 C-30.78938373 103.07590907 -16.55522108 102.77761054 -5 97 C-2.21578097 94.40810289 -2.21578097 94.40810289 -1 91 C-1.44955657 86.65428652 -2.26434796 84.69792629 -5.4375 81.6875 C-13.85477017 77.70037202 -24.100568 77.37132213 -33.25 76.0625 C-73.77576217 70.08693233 -73.77576217 70.08693233 -84.8125 55.625 C-89.33186666 45.63482107 -89.08453592 34.32899663 -86.1484375 23.91796875 C-82.44087116 14.49772366 -74.88271984 8.2894163 -65.96875 3.85644531 C-45.11615925 -5.2148454 -21.8243238 -4.66385461 0 0 Z M-54 2 C-55.01964844 2.35191406 -56.03929687 2.70382813 -57.08984375 3.06640625 C-68.65747418 7.48632053 -79.49692799 14.41220919 -84.9375 25.99609375 C-87.49862719 34.55096999 -87.12216538 45.04911152 -83 53 C-77.39163714 62.23482305 -70.18302516 67.20330849 -59.71850586 69.82080078 C-49.13493549 71.8960685 -38.50885473 73.39040179 -27.80859375 74.72680664 C-18.18581755 75.9388124 -9.76033341 77.34710564 -1.4375 82.625 C0.54589811 85.90191861 0.5297556 88.69128655 0.62890625 92.46484375 C-0.28176297 96.1358023 -2.1161602 97.61943418 -5 100 C-21.42443578 108.49204161 -45.69278945 105.22938163 -62.89941406 100.70214844 C-65.82671917 99.72365826 -68.47753685 98.36580218 -71.17138672 96.86914062 C-74.07038917 95.4912436 -76.82008815 95.26499265 -80 95 C-83.99508904 101.56336057 -87.28690965 108.47278482 -89 116 C-79.00730425 121.24690219 -69.40851148 124.54676428 -58.30297852 126.57397461 C-56.68470565 126.87333708 -55.07076742 127.19663887 -53.46069336 127.53735352 C-46.28899585 128.99504726 -39.36997459 129.33403057 -32.0625 129.3125 C-30.97259766 129.32861328 -29.88269531 129.34472656 -28.75976562 129.36132812 C-21.09023148 129.36588519 -14.34271582 128.1617342 -7 126 C-5.86304688 125.69578125 -4.72609375 125.3915625 -3.5546875 125.078125 C7.13694563 121.77400514 15.36692313 116.04350534 22 107 C22.43441406 106.41992188 22.86882812 105.83984375 23.31640625 105.2421875 C27.87545826 97.90322573 27.00560945 87.67156399 25.25 79.5 C21.70624888 69.57749687 15.86686698 64.41084088 7 59 C3.60413957 57.75561765 3.60413957 57.75561765 0.0625 56.875 C-1.10152344 56.56304687 -2.26554687 56.25109375 -3.46484375 55.9296875 C-4.63144531 55.62289062 -5.79804688 55.31609375 -7 55 C-8.55847656 54.47599609 -8.55847656 54.47599609 -10.1484375 53.94140625 C-16.67497325 52.34617794 -23.35340011 52.24675799 -30.04492188 51.87695312 C-39.53177677 51.26149965 -49.78654255 50.18744681 -58 45 C-60.84106004 40.73840994 -60.86422727 36.99850365 -60 32 C-57.37740307 27.1935676 -52.87017515 25.19363942 -47.84741211 23.60424805 C-42.47853131 22.46492026 -37.03520235 22.55832642 -31.57080078 22.60888672 C-29.50356065 22.62497229 -27.43827471 22.60897069 -25.37109375 22.58984375 C-17.99981403 22.57787478 -11.83002675 23.2067534 -5 26 C-2.41070199 26.81520722 0.19456321 27.52743866 2.8125 28.25 C4.07707031 28.60578125 5.34164062 28.9615625 6.64453125 29.328125 C10.47473098 30.17285853 10.47473098 30.17285853 14 29 C15.21565441 27.19912706 15.21565441 27.19912706 16 24.9375 C17.55641371 21.06499447 19.2975428 17.4053623 21.265625 13.7265625 C22.19570257 11.85259958 22.19570257 11.85259958 22 9 C15.87826207 6.09977239 9.62939929 4.4794358 3.0625 2.875 C2.01642578 2.61074219 0.97035156 2.34648437 -0.10742188 2.07421875 C-17.12758635 -2.1407057 -37.17074012 -3.82821378 -54 2 Z " fill="#ECECEC" transform="translate(366,6)"/>
<path d="M0 0 C1.59643156 3.19286312 1.64842067 6.54413161 1 10 C-1.3125 11.75 -1.3125 11.75 -4 13 C-5.00642948 14.32848691 -6.00692179 15.66150329 -7 17 C-8.32467746 17.6837045 -9.65863633 18.34964186 -11 19 C-11.639375 19.70125 -12.27875 20.4025 -12.9375 21.125 C-15 23 -15 23 -17.38671875 23.3203125 C-20.60740781 22.92554942 -21.59047802 22.00608394 -23.875 19.75 C-30.93157469 13.23320061 -38.02983909 10 -47.76953125 10 C-60.12217586 10.82926845 -70.07380797 15.16428835 -78.3125 24.5625 C-84.65816226 32.99805103 -87.4781479 43.51993135 -86 54 C-84.42291648 60.54167806 -82.56487741 65.94602859 -78 71 C-78 71.99 -78 72.98 -78 74 C-77.401875 74.268125 -76.80375 74.53625 -76.1875 74.8125 C-74 76 -74 76 -72.6953125 77.37890625 C-66.05931763 83.72438521 -57.29479151 85.85265975 -48.38671875 86.09765625 C-38.93670627 85.82516454 -31.55960816 83.89596199 -24 78 C-22.33499578 76.1779888 -20.82311606 74.3007986 -19.31640625 72.34765625 C-18 71 -18 71 -15.125 70.5625 C-14.42375 70.706875 -13.7225 70.85125 -13 71 C-12.67 71.99 -12.34 72.98 -12 74 C-11.1028125 74.2165625 -11.1028125 74.2165625 -10.1875 74.4375 C-7.24510759 75.19411519 -6.09788815 76.83853948 -4 79 C-2.36021682 80.04349839 -0.69905634 81.05607981 1 82 C0.505 83.98 0.505 83.98 0 86 C-3.76037232 83.6070358 -6.90672291 81.19638633 -10 78 C-13.04138324 75.35527945 -13.04138324 75.35527945 -17 75 C-18.34752913 76.6552102 -19.67869127 78.32378438 -21 80 C-23.62109375 81.94921875 -23.62109375 81.94921875 -26.4375 83.6875 C-27.36433594 84.26886719 -28.29117188 84.85023437 -29.24609375 85.44921875 C-38.54357307 90.68482058 -49.60354564 90.4357952 -60 89 C-71.14789626 85.63142163 -79.4101503 76.90708233 -85 67 C-90.55488699 53.98140386 -89.88987433 42.14629767 -85 29 C-79.68651128 18.03386372 -69.75392131 11.92600804 -58.6875 7.75 C-48.77513406 5.73392557 -37.97454329 6.49320285 -29.125 11.6875 C-26.68547853 13.38949172 -24.33632396 15.1602003 -22 17 C-20.515 17.99 -20.515 17.99 -19 19 C-19 19.66 -19 20.32 -19 21 C-16.55519921 20.81171228 -16.55519921 20.81171228 -14 20 C-13.731875 19.4225 -13.46375 18.845 -13.1875 18.25 C-11.52223862 15.09476792 -9.15952076 13.45171409 -6.375 11.25 C-5.37210938 10.45078125 -4.36921875 9.6515625 -3.3359375 8.828125 C-2.56507813 8.22484375 -1.79421875 7.6215625 -1 7 C-1.69102349 1.96221583 -5.02119589 0.08882841 -8.875 -2.83984375 C-24.05862043 -13.33552137 -40.448975 -18.55536006 -59.0625 -15.34375 C-76.69116821 -11.89824596 -91.40485389 -2.64221908 -102 12 C-104.28580492 16.21392887 -106.16459168 20.573427 -108 25 C-108.34675781 25.83144531 -108.69351562 26.66289063 -109.05078125 27.51953125 C-113.22935635 39.77800511 -112.14415362 54.97263067 -109.3125 67.4375 C-109.16417725 68.10410645 -109.01585449 68.77071289 -108.86303711 69.45751953 C-107.72011674 73.83378228 -105.85133903 76.98018347 -103.11010742 80.484375 C-102 82 -102 82 -101 84.5625 C-99.1523715 89.06609446 -95.9441886 92.24464912 -92.1875 95.25 C-91.465625 95.8275 -90.74375 96.405 -90 97 C-90 97.66 -90 98.32 -90 99 C-89.34 99.226875 -88.68 99.45375 -88 99.6875 C-85.51398485 100.77513163 -83.55734778 101.89513078 -81.3125 103.375 C-66.49859763 112.8402155 -46.73447336 113.32605241 -29.8125 109.9375 C-19.28878602 106.92872539 -10.74402022 101.36983949 -2.92578125 93.8203125 C-1 92 -1 92 1 91 C0.39003271 96.65695467 -2.41878958 98.62583309 -6.59765625 102.14453125 C-9.6429412 104.4965806 -12.56604719 106.25180584 -16 108 C-16.5671875 108.33644531 -17.134375 108.67289062 -17.71875 109.01953125 C-32.65035773 117.46601274 -53.22827056 116.84048246 -69.51171875 113.12109375 C-76.6526476 110.82608078 -83.79614423 107.50996493 -89 102 C-90.485 101.01 -90.485 101.01 -92 100 C-92 99.34 -92 98.68 -92 98 C-92.58007812 97.75121094 -93.16015625 97.50242187 -93.7578125 97.24609375 C-102.95944618 92.13229385 -108.65339697 80.86184647 -111.48046875 71.15625 C-115.37397649 56.66633548 -116.30103356 44.27225867 -112.8125 29.5625 C-112.51883545 28.31907837 -112.51883545 28.31907837 -112.21923828 27.05053711 C-110.70788398 21.30681171 -108.32721305 16.88520994 -105 12 C-104.4946875 11.12085937 -103.989375 10.24171875 -103.46875 9.3359375 C-97.83951317 0.38305552 -90.15030238 -5.9396055 -81 -11 C-80.33484375 -11.39832031 -79.6696875 -11.79664063 -78.984375 -12.20703125 C-73.07481163 -15.52184936 -66.60461547 -16.74782383 -60 -18 C-59.23816406 -18.14566406 -58.47632813 -18.29132812 -57.69140625 -18.44140625 C-36.06115663 -21.67163256 -16.2388731 -13.78512148 0 0 Z " fill="#EDEDED" transform="translate(528,19)"/>
<path d="M0 0 C0.99 0.495 0.99 0.495 2 1 C2 1.66 2 2.32 2 3 C2.66 3 3.32 3 4 3 C4 3.66 4 4.32 4 5 C4.66 5 5.32 5 6 5 C12.55212369 19.04735609 18.9568639 33.13919227 24.640625 47.5625 C26.25810723 51.65268495 27.94903089 55.70897697 29.6484375 59.765625 C33.24024495 68.3610486 36.80612752 76.9691366 40.25 85.625 C42.49419571 91.25916221 44.90597727 96.80180724 47.4375 102.3125 C49.43605322 106.68657904 51.27422716 111.09616661 53.015625 115.578125 C54.31976607 118.78672605 55.82382302 121.89037947 57.36328125 124.9921875 C58.12814494 127.40408895 57.68750787 128.61253486 57 131 C52.94354318 131.14863004 48.88814514 131.25733927 44.82958984 131.32958984 C43.45007719 131.35971304 42.07075533 131.40062275 40.69189453 131.45263672 C38.70689908 131.52562502 36.72049068 131.55629398 34.734375 131.5859375 C33.54038086 131.6173584 32.34638672 131.6487793 31.11621094 131.68115234 C28 131 28 131 25.66894531 128.18994141 C24.15327808 125.29296831 22.93008764 122.41783015 21.84375 119.3359375 C19.3189489 112.34597891 16.34601198 105.55874662 12.94921875 98.953125 C11.93964013 96.87580273 11.08816441 94.77714268 10.25 92.625 C8.33580116 87.72222986 6.21376052 82.92691192 4.0625 78.125 C1.25089093 71.84788899 -1.48199294 65.55242402 -4.08984375 59.1875 C-4.67920115 57.77101869 -5.31388609 56.37222781 -6 55 C-10.47699131 63.78816813 -14.58878068 72.68803787 -18.10546875 81.90625 C-19 84 -19 84 -21 87 C-21.48868098 88.33122256 -21.93437055 89.67863219 -22.34765625 91.03515625 C-24.05021932 96.32026257 -26.21055624 101.35530949 -28.4375 106.4375 C-29.20826648 108.20649356 -29.9778025 109.97602377 -30.74609375 111.74609375 C-31.12233887 112.61089355 -31.49858398 113.47569336 -31.88623047 114.36669922 C-33.34228127 117.80926037 -34.67861915 121.29413412 -35.99243164 124.79321289 C-37.14544875 127.31856341 -37.97561794 129.07076498 -40 131 C-43.1862793 131.45410156 -43.1862793 131.45410156 -47.07421875 131.390625 C-47.7580513 131.38496521 -48.44188385 131.37930542 -49.1464386 131.37347412 C-51.32750899 131.35110816 -53.50692753 131.30091765 -55.6875 131.25 C-57.16729395 131.229935 -58.6471137 131.21168422 -60.12695312 131.1953125 C-63.7518376 131.15124474 -67.37575756 131.08221822 -71 131 C-70.43031981 127.74776616 -69.6678386 124.9254642 -68.29296875 121.92578125 C-67.95555664 121.18062256 -67.61814453 120.43546387 -67.27050781 119.66772461 C-66.91311523 118.89050049 -66.55572266 118.11327637 -66.1875 117.3125 C-65.45563384 115.69594443 -64.72515242 114.07876118 -63.99609375 112.4609375 C-63.64788574 111.6884668 -63.29967773 110.91599609 -62.94091797 110.12011719 C-61.48266566 106.83431982 -60.16555967 103.49908256 -58.85546875 100.15234375 C-56.64192889 94.58311788 -54.11844106 89.20097649 -51.375 83.875 C-49.39605632 79.98327793 -48.18989278 76.20428783 -47 72 C-46.36561976 70.79494298 -45.69727609 69.60728919 -45 68.4375 C-43.15246221 65.26204442 -42.13262347 62.46865939 -41 59 C-40.4225 57.88625 -39.845 56.7725 -39.25 55.625 C-36.83050131 50.93890775 -35.09596214 46.01049711 -33.28662109 41.06811523 C-31.46193836 36.12468524 -29.39424533 31.35624565 -27.15234375 26.5859375 C-25.94012291 23.86563175 -24.92632404 21.12122199 -23.9375 18.3125 C-19.08160657 4.75082154 -19.08160657 4.75082154 -13.984375 0.8359375 C-9.61669312 -1.00399148 -4.6291715 -0.48509282 0 0 Z M-16 6 C-17.6163617 8.89516996 -18.80023831 11.91244124 -20 15 C-20.70340245 16.75950812 -21.40685913 18.5189948 -22.11132812 20.27807617 C-22.62569567 21.56415947 -23.13868982 22.8507928 -23.65039062 24.13793945 C-27.32341235 33.36514708 -31.24741627 42.46318628 -35.5 51.4375 C-38.45401662 57.67861988 -41.07742382 64.01069623 -43.59765625 70.4375 C-45.26727564 74.67898436 -47.01447684 78.88418852 -48.78125 83.0859375 C-49.62653015 85.10702402 -50.45899701 87.13349871 -51.28125 89.1640625 C-54.84878091 97.93061713 -54.84878091 97.93061713 -57.0625 101.5625 C-59.20677489 105.36685868 -60.61888072 109.16275211 -62.05078125 113.27734375 C-62.89864292 115.70927621 -63.80965988 118.10279491 -64.75 120.5 C-66.1681682 123.85145142 -66.1681682 123.85145142 -66 127 C-66.66 127 -67.32 127 -68 127 C-68 127.66 -68 128.32 -68 129 C-59.09 129 -50.18 129 -41 129 C-38.09466222 123.18932443 -35.47547044 117.85779218 -33.16015625 111.88671875 C-31.71135265 108.28178318 -30.13738116 104.73874374 -28.5625 101.1875 C-25.9046907 95.17733932 -23.43903064 89.12359971 -21.140625 82.96484375 C-20.1024229 80.26622938 -18.99247209 77.60973597 -17.84326172 74.95678711 C-16.88976244 72.74419396 -15.95747125 70.52329878 -15.02734375 68.30078125 C-14.68509766 67.48416016 -14.34285156 66.66753906 -13.99023438 65.82617188 C-13.28365298 64.13902854 -12.57793504 62.45152335 -11.87304688 60.76367188 C-11.53208984 59.95091797 -11.19113281 59.13816406 -10.83984375 58.30078125 C-10.53425537 57.57028564 -10.22866699 56.83979004 -9.91381836 56.0871582 C-9.6122583 55.398396 -9.31069824 54.70963379 -9 54 C-8.69392822 53.27192139 -8.38785645 52.54384277 -8.07250977 51.79370117 C-7 50 -7 50 -4 49 C-3.9175 49.825 -3.835 50.65 -3.75 51.5 C-2.98466094 55.07158228 -1.78470428 57.6157415 -0.1015625 60.8125 C1.45842952 63.91035649 2.68763964 67.11285608 3.953125 70.33984375 C9.23204242 83.75380928 15.08537222 96.95450792 20.80859375 110.18359375 C25.01794641 119.9354357 25.01794641 119.9354357 26.8125 124.8125 C27.68141326 127.81999984 27.68141326 127.81999984 29 129 C30.92667507 129.08748207 32.85651861 129.10697334 34.78515625 129.09765625 C35.95498047 129.09443359 37.12480469 129.09121094 38.33007812 129.08789062 C39.56177734 129.07951172 40.79347656 129.07113281 42.0625 129.0625 C43.29806641 129.05798828 44.53363281 129.05347656 45.80664062 129.04882812 C48.87114117 129.03699608 51.93554721 129.02051173 55 129 C54.52976174 124.75763307 54.0588533 121.4844099 51.75 117.875 C48.99378611 113.21002878 47.13564278 108.39244839 45.24609375 103.32421875 C42.47416678 95.92951702 39.35488361 88.70986073 36 81.5625 C33.45925455 76.12269883 31.26321851 70.60915361 29.1484375 64.9921875 C27.23783856 60.01423244 25.01200861 55.19592895 22.78125 50.35546875 C20.3989628 45.16237317 18.13627533 39.95441386 16.046875 34.63671875 C14.09879072 29.73016319 12.04106693 24.86844654 10 20 C9.34 20 8.68 20 8 20 C7.9175 19.175 7.835 18.35 7.75 17.5 C6.61719555 12.21357924 4.30346308 8.00532782 1.375 3.5 C-4.30578489 -0.08786414 -11.73018351 0.85110364 -16 6 Z " fill="#EFEFEF" transform="translate(196,3)"/>
<path d="M0 0 C9.24 0 18.48 0 28 0 C28.09085929 10.93666341 28.16403549 21.87307057 28.20724869 32.81002808 C28.22800301 37.89009782 28.25609476 42.96989293 28.30175781 48.04980469 C28.34565392 52.96466722 28.36922814 57.87926788 28.37950897 62.79431152 C28.38682267 64.65673945 28.40110106 66.51915526 28.42292023 68.38146973 C28.62962753 86.7788886 26.71677828 102.59181667 13.578125 116.578125 C2.51901601 126.96698496 -9.64808066 131.00077257 -24.5625 131.5 C-39.60931205 131.02383506 -53.3724495 125.86306408 -64 115 C-66 112.375 -66 112.375 -67 110 C-66.5625 107.8515625 -66.5625 107.8515625 -66 106 C-65.360625 107.010625 -64.72125 108.02125 -64.0625 109.0625 C-60.77478636 113.67650721 -56.56485985 116.72538676 -52 120 C-51.05125 120.7425 -50.1025 121.485 -49.125 122.25 C-37.07990465 128.9952534 -21.40800543 128.77647241 -8.3125 125.3125 C-2.93658991 123.55825565 1.36657899 121.20775301 6 118 C6.66 118 7.32 118 8 118 C8.226875 117.443125 8.45375 116.88625 8.6875 116.3125 C10.36108101 113.36380964 12.60293013 111.39706987 15 109 C22.96375702 99.86086921 25.11525615 88.50735089 25.20532227 76.69970703 C25.21522186 75.88928452 25.22512146 75.078862 25.23532104 74.24388123 C25.26675019 71.5818874 25.29161949 68.91987576 25.31640625 66.2578125 C25.33699185 64.40550286 25.35798874 62.55319774 25.37937927 60.70089722 C25.4344341 55.83809081 25.4839162 50.97524318 25.53222656 46.11236572 C25.58256309 41.14518589 25.63818558 36.17806554 25.69335938 31.2109375 C25.80073791 21.47400738 25.90173875 11.73702641 26 2 C18.08 2 10.16 2 2 2 C2.01571045 4.41183594 2.0314209 6.82367188 2.04760742 9.30859375 C2.09741342 17.29527813 2.13049292 25.28196953 2.15543652 33.26876831 C2.17106342 38.10911301 2.1922472 42.94929799 2.22631836 47.78955078 C2.2590181 52.4644629 2.27687538 57.1392218 2.28463173 61.8142395 C2.29015622 63.59394745 2.30094413 65.37364743 2.31719017 67.15328979 C2.33910585 69.65445799 2.34196108 72.15500058 2.34057617 74.65625 C2.351362 75.38489761 2.36214783 76.11354523 2.3732605 76.86427307 C2.32795633 84.47222019 -0.22228651 91.06013998 -5 97 C-13.86778088 104.52791737 -21.13054302 105.12964756 -32.60009766 104.37744141 C-37.98929479 103.52986269 -41.83238436 100.28605771 -45 96 C-45.73828125 93.734375 -45.73828125 93.734375 -46 92 C-50.91441412 93.43652105 -55.00238358 95.54159615 -59.375 98.125 C-60.01566406 98.49753906 -60.65632813 98.87007813 -61.31640625 99.25390625 C-62.88048477 100.16434002 -64.44065534 101.08148191 -66 102 C-66.33 101.01 -66.66 100.02 -67 99 C-63.75516597 96.21871369 -60.95256515 94.54246445 -57 93 C-56.030625 92.29875 -55.06125 91.5975 -54.0625 90.875 C-50.64423371 88.78218391 -48.93226461 88.37441245 -45 89 C-43 92 -43 92 -43 95 C-42.38125 95.309375 -41.7625 95.61875 -41.125 95.9375 C-39.75 96.625 -38.375 97.3125 -37 98 C-37 98.66 -37 99.32 -37 100 C-28.22978251 101.52525522 -19.10140558 102.36947211 -11 98 C-6.01817272 93.90580341 -2.70140957 88.16279659 -1 82 C-0.39084576 75.72880432 -0.39358382 69.4798238 -0.390625 63.18359375 C-0.37562717 61.35798182 -0.35889667 59.53238337 -0.34051514 57.70680237 C-0.29700926 52.92783958 -0.27687987 48.14905978 -0.26177979 43.36993408 C-0.24214801 38.48284154 -0.20018496 33.59594488 -0.16015625 28.70898438 C-0.08503565 19.13935042 -0.03670128 9.5698585 0 0 Z " fill="#F4F4F4" transform="translate(67,4)"/>
<path d="M0 0 C0.76425293 0.16048828 1.52850586 0.32097656 2.31591797 0.48632812 C4.61021775 0.97539516 6.89959366 1.48188893 9.1875 2 C9.87038086 2.1537207 10.55326172 2.30744141 11.25683594 2.46582031 C15.77485551 3.54558452 19.79321632 5.07939318 24 7 C24.64889496 13.6421609 22.46690063 18.07943044 19.5 23.9375 C18.85611328 25.24944336 18.85611328 25.24944336 18.19921875 26.58789062 C17.14491764 28.73163621 16.07842875 30.86831859 15 33 C11.68693817 33.04491364 9.1734885 32.90815017 6.0625 31.75 C-3.40186618 28.40963546 -13.214306 25.0964904 -23.30078125 24.68359375 C-24.27724609 24.64169922 -25.25371094 24.59980469 -26.25976562 24.55664062 C-27.26716797 24.51732422 -28.27457031 24.47800781 -29.3125 24.4375 C-30.85260742 24.37272461 -30.85260742 24.37272461 -32.42382812 24.30664062 C-34.94909569 24.20093175 -37.47445562 24.09883532 -40 24 C-40 23.67 -40 23.34 -40 23 C-12.50985236 22.2266351 -12.50985236 22.2266351 -1.96484375 25.9765625 C2.89364693 27.65366995 7.92365665 28.29340276 13 29 C13.34611328 28.21689453 13.34611328 28.21689453 13.69921875 27.41796875 C16.42733255 21.26084235 19.20551283 15.1272567 22 9 C21.35417969 8.84144531 20.70835937 8.68289063 20.04296875 8.51953125 C15.10074868 7.29580781 10.16867914 6.05232786 5.25390625 4.72265625 C4.42802002 4.50053467 3.60213379 4.27841309 2.7512207 4.04956055 C1.11704564 3.60883574 -0.51599227 3.1638666 -2.14770508 2.71411133 C-18.26881181 -1.61977308 -38.08899625 -2.51020853 -54 3 C-55.01964844 3.35191406 -56.03929687 3.70382813 -57.08984375 4.06640625 C-67.54754247 8.06222304 -77.46081636 13.91302071 -83 24 C-84.96776271 30.10527702 -85.25239801 35.62029979 -85.125 42 C-85.11146484 43.30517578 -85.11146484 43.30517578 -85.09765625 44.63671875 C-85.07434619 46.7579342 -85.03848579 48.87900562 -85 51 C-89.23790747 44.6431388 -88.55574618 37.31814781 -87.609375 29.96484375 C-85.47449616 19.35887514 -80.0041465 12.68540831 -71.125 6.6875 C-49.77677531 -5.63262032 -23.38057272 -4.99642476 0 0 Z " fill="#E7E7E7" transform="translate(366,6)"/>
<path d="M0 0 C0.33 0 0.66 0 1 0 C1.09300741 11.52722433 1.16392041 23.05435821 1.20724869 34.58188248 C1.22805249 39.9355833 1.25623755 45.28902588 1.30175781 50.64257812 C1.34547373 55.81677511 1.3691912 60.99072494 1.37950897 66.16509247 C1.38685436 68.13130326 1.40119727 70.09750175 1.42292023 72.06360626 C1.60325048 89.07379001 -0.38296722 102.07625294 -12.7578125 114.80859375 C-14.44221343 116.31672016 -16.17869581 117.66149843 -18 119 C-18.61875 119.51175781 -19.2375 120.02351563 -19.875 120.55078125 C-30.43483078 128.61065209 -45.12811602 130.31950275 -58 129 C-71.18672752 126.66211405 -83.68897859 121.2832156 -92 110.375 C-93.15580946 107.62995253 -92.83777477 106.75767529 -92 104 C-91.360625 105.010625 -90.72125 106.02125 -90.0625 107.0625 C-86.77478636 111.67650721 -82.56485985 114.72538676 -78 118 C-77.05125 118.7425 -76.1025 119.485 -75.125 120.25 C-63.07990465 126.9952534 -47.40800543 126.77647241 -34.3125 123.3125 C-28.93658991 121.55825565 -24.63342101 119.20775301 -20 116 C-19.34 116 -18.68 116 -18 116 C-17.773125 115.443125 -17.54625 114.88625 -17.3125 114.3125 C-15.63891899 111.36380964 -13.39706987 109.39706987 -11 107 C-3.03624298 97.86086921 -0.88474385 86.50735089 -0.79467773 74.69970703 C-0.78477814 73.88928452 -0.77487854 73.078862 -0.76467896 72.24388123 C-0.73324981 69.5818874 -0.70838051 66.91987576 -0.68359375 64.2578125 C-0.66300815 62.40550286 -0.64201126 60.55319774 -0.62062073 58.70089722 C-0.5655659 53.83809081 -0.5160838 48.97524318 -0.46777344 44.11236572 C-0.41743691 39.14518589 -0.36181442 34.17806554 -0.30664062 29.2109375 C-0.19926211 19.47400921 -0.09777246 9.73702916 0 0 Z " fill="#E0E0E0" transform="translate(93,6)"/>
<path d="M0 0 C0.33 0 0.66 0 1 0 C1.02578125 1.02996094 1.0515625 2.05992188 1.078125 3.12109375 C1.35567062 10.93122749 2.03153431 18.48973782 3.75 26.125 C3.89469727 26.81005615 4.03939453 27.4951123 4.18847656 28.20092773 C5.44654762 33.39142395 7.76423918 36.76741609 11 41 C11.33 41.845625 11.66 42.69125 12 43.5625 C13.8476285 48.06609446 17.0558114 51.24464912 20.8125 54.25 C21.534375 54.8275 22.25625 55.405 23 56 C23 56.66 23 57.32 23 58 C23.66 58.226875 24.32 58.45375 25 58.6875 C27.48601515 59.77513163 29.44265222 60.89513078 31.6875 62.375 C46.50140237 71.8402155 66.26552664 72.32605241 83.1875 68.9375 C93.71121398 65.92872539 102.25597978 60.36983949 110.07421875 52.8203125 C112 51 112 51 114 50 C113.39003271 55.65695467 110.58121042 57.62583309 106.40234375 61.14453125 C103.3570588 63.4965806 100.43395281 65.25180584 97 67 C96.4328125 67.33644531 95.865625 67.67289062 95.28125 68.01953125 C80.34964227 76.46601274 59.77172944 75.84048246 43.48828125 72.12109375 C36.3473524 69.82608078 29.20385577 66.50996493 24 61 C23.01 60.34 22.02 59.68 21 59 C21 58.34 21 57.68 21 57 C20.41992188 56.75121094 19.83984375 56.50242188 19.2421875 56.24609375 C9.99694015 51.10805559 4.39896428 39.8247394 1.44921875 30.12109375 C-1.49516584 19.52420536 -2.85282356 10.81165618 0 0 Z " fill="#E6E6E6" transform="translate(415,60)"/>
<path d="M0 0 C0.99 0 1.98 0 3 0 C5.5 6 8 12 10.5 18 C10.91765625 19.00160156 11.3353125 20.00320312 11.765625 21.03515625 C12.54912133 22.91703509 13.33061064 24.79975179 14.109375 26.68359375 C16.83672831 33.26847075 19.62910239 39.82439515 22.4375 46.375 C22.82583008 47.2825 23.21416016 48.19 23.61425781 49.125 C25.35005296 53.1766461 27.09275083 57.22417715 28.87890625 61.25390625 C29.15613525 61.88441895 29.43336426 62.51493164 29.71899414 63.16455078 C30.44316832 64.80848728 31.17441116 66.44930501 31.90625 68.08984375 C33.02584734 71.0687724 33.58704513 73.85121913 34 77 C33.01 76.67 32.02 76.34 31 76 C30.24808148 74.18855992 29.51508862 72.36697308 28.87890625 70.51171875 C26.40584414 63.44425681 23.37080073 56.6069524 19.94921875 49.953125 C18.93964013 47.87580273 18.08816441 45.77714268 17.25 43.625 C15.33580116 38.72222986 13.21376052 33.92691192 11.0625 29.125 C8.25089093 22.84788899 5.51800706 16.55242402 2.91015625 10.1875 C2.32079885 8.77101869 1.68611391 7.37222781 1 6 C-3.47699131 14.78816813 -7.58878068 23.68803787 -11.10546875 32.90625 C-12 35 -12 35 -14 38 C-14.47692818 39.30000834 -14.91060105 40.61628007 -15.3125 41.94140625 C-17.18892217 47.76043655 -19.57288022 53.33013945 -22 58.9375 C-22.43828125 59.97712891 -22.8765625 61.01675781 -23.328125 62.08789062 C-23.97007812 63.57385742 -23.97007812 63.57385742 -24.625 65.08984375 C-25.00914062 65.98566162 -25.39328125 66.88147949 -25.7890625 67.80444336 C-27 70 -27 70 -30 72 C-28.90820296 66.90494713 -27.48240486 62.70506733 -25.0625 58.10546875 C-23.08780046 54.19236929 -21.59155751 50.08007525 -20 46 C-18.98385967 43.43562118 -17.96084073 40.87401224 -16.9375 38.3125 C-16.45152344 37.09175781 -15.96554688 35.87101562 -15.46484375 34.61328125 C-14.02202909 31.05433843 -12.51638565 27.52814915 -11 24 C-10.35229855 22.44608985 -9.70659002 20.89134805 -9.0625 19.3359375 C-8.72476563 18.52382812 -8.38703125 17.71171875 -8.0390625 16.875 C-7.34358443 15.20166932 -6.65089621 13.52717651 -5.9609375 11.8515625 C-2.28686821 3.04501474 -2.28686821 3.04501474 0 0 Z " fill="#E8E8E8" transform="translate(189,52)"/>
<path d="M0 0 C1.45246005 0.01507744 2.90493527 0.02876042 4.35742188 0.04101562 C7.88443457 0.07377139 11.41086785 0.12538336 14.9375 0.1875 C14.9375 0.5175 14.9375 0.8475 14.9375 1.1875 C14.20748779 1.1968457 13.47747559 1.20619141 12.7253418 1.21582031 C9.35792357 1.27012063 5.991807 1.35364882 2.625 1.4375 C1.47708984 1.45167969 0.32917969 1.46585938 -0.85351562 1.48046875 C-7.79743993 1.67718049 -13.42961232 2.62840932 -19.84448242 5.33886719 C-22.0625 6.1875 -22.0625 6.1875 -25.0625 6.1875 C-25.0625 6.8475 -25.0625 7.5075 -25.0625 8.1875 C-26.0215625 9.0846875 -26.0215625 9.0846875 -27 10 C-29.3877489 12.53246096 -30.0625 13.71241945 -30.0625 17.1875 C-25.86986067 23.65156924 -20.24633935 24.54894741 -13.0625 26.1875 C-6.03448527 27.42384186 0.93712726 28.15211685 8.0625 28.4375 C14.2083295 28.85792366 19.9069711 30.33603939 25.8125 32 C26.70469238 32.2484668 27.59688477 32.49693359 28.51611328 32.75292969 C38.64315725 35.73762258 48.29631825 41.11456134 54.2421875 50.17578125 C57.24114666 57.53037157 56.17892991 66.39914993 55.9375 74.1875 C55.6075 74.1875 55.2775 74.1875 54.9375 74.1875 C54.77314453 72.34285156 54.77314453 72.34285156 54.60546875 70.4609375 C54.44593514 68.82806405 54.28574407 67.19525474 54.125 65.5625 C54.05474609 64.75425781 53.98449219 63.94601563 53.91210938 63.11328125 C52.99546691 54.09351942 49.164169 47.5978827 42.26171875 41.7734375 C36.15460392 37.51022672 29.05614424 36.02534614 21.9375 34.1875 C20.38289063 33.66542969 20.38289063 33.66542969 18.796875 33.1328125 C12.26782937 31.53359282 5.58740761 31.43444079 -1.10742188 31.06445312 C-11.32614604 30.40152011 -21.49033722 29.15074367 -30.0625 23.1875 C-32.91278902 18.91206647 -33.03574125 15.19817175 -32.0625 10.1875 C-28.98109257 4.99725436 -24.55646494 2.52548133 -18.93188477 0.76098633 C-12.71315887 -0.48191226 -6.31298451 -0.11457191 0 0 Z " fill="#E3E3E3" transform="translate(337.0625,27.8125)"/>
<path d="M0 0 C6.70613322 4.98795003 6.70613322 4.98795003 7.94384766 7.46337891 C8.44922773 12.76986971 8.44922773 12.76986971 7.94384766 15.46337891 C5.63134766 17.21337891 5.63134766 17.21337891 2.94384766 18.46337891 C1.93741818 19.79186582 0.93692586 21.12488219 -0.05615234 22.46337891 C-1.38082981 23.1470834 -2.71478867 23.81302076 -4.05615234 24.46337891 C-4.69552734 25.16462891 -5.33490234 25.86587891 -5.99365234 26.58837891 C-8.05615234 28.46337891 -8.05615234 28.46337891 -10.44287109 28.78369141 C-13.66356015 28.38892832 -14.64663037 27.46946285 -16.93115234 25.21337891 C-23.42337711 19.21776088 -29.31356118 16.80027413 -38.05615234 15.46337891 C-38.05615234 15.13337891 -38.05615234 14.80337891 -38.05615234 14.46337891 C-28.70026185 13.32329941 -23.44465206 15.87111089 -16.05615234 21.46337891 C-15.29173828 21.99318359 -14.52732422 22.52298828 -13.73974609 23.06884766 C-13.18416016 23.52904297 -12.62857422 23.98923828 -12.05615234 24.46337891 C-12.05615234 25.12337891 -12.05615234 25.78337891 -12.05615234 26.46337891 C-9.61135156 26.27509119 -9.61135156 26.27509119 -7.05615234 25.46337891 C-6.78802734 24.88587891 -6.51990234 24.30837891 -6.24365234 23.71337891 C-4.57839097 20.55814682 -2.2156731 18.91509299 0.56884766 16.71337891 C1.57173828 15.91416016 2.57462891 15.11494141 3.60791016 14.29150391 C4.37876953 13.68822266 5.14962891 13.08494141 5.94384766 12.46337891 C5.25282416 7.42559474 1.92265176 5.55220731 -1.93115234 2.62353516 C-12.83224234 -4.9118433 -22.89924143 -8.87687938 -36.05615234 -10.53662109 C-36.05615234 -10.86662109 -36.05615234 -11.19662109 -36.05615234 -11.53662109 C-23.56850998 -14.92112229 -9.8218997 -7.12266438 0 0 Z " fill="#ECECEC" transform="translate(521.05615234375,13.53662109375)"/>
<path d="M0 0 C0.91974609 -0.00386719 1.83949219 -0.00773438 2.78710938 -0.01171875 C7.45079751 -0.00501323 11.85079728 0.1633951 16.4375 1.125 C16.4375 1.455 16.4375 1.785 16.4375 2.125 C15.62708252 2.13958252 14.81666504 2.15416504 13.98168945 2.16918945 C10.9079284 2.231089 7.83475835 2.30538202 4.76147461 2.38745117 C2.80408166 2.43615436 0.84636388 2.4712012 -1.11132812 2.50585938 C-18.6886418 2.99784525 -37.00372924 7.25279634 -49.66796875 20.29296875 C-56.10646859 28.0058933 -56.88178434 35.39583806 -56.6875 45.125 C-56.67396484 46.43017578 -56.67396484 46.43017578 -56.66015625 47.76171875 C-56.63684619 49.8829342 -56.60098579 52.00400562 -56.5625 54.125 C-60.80040747 47.7681388 -60.11824618 40.44314781 -59.171875 33.08984375 C-57.03699616 22.48387514 -51.5666465 15.81040831 -42.6875 9.8125 C-29.72682501 2.33285812 -14.77683854 -0.06239341 0 0 Z " fill="#F5F5F5" transform="translate(337.5625,2.875)"/>
<path d="M0 0 C0.70125 0.144375 1.4025 0.28875 2.125 0.4375 C2.62 1.9225 2.62 1.9225 3.125 3.4375 C3.723125 3.581875 4.32125 3.72625 4.9375 3.875 C7.87989241 4.63161519 9.02711185 6.27603948 11.125 8.4375 C12.76478318 9.48099839 14.42594366 10.49357981 16.125 11.4375 C15.795 12.7575 15.465 14.0775 15.125 15.4375 C11.36462768 13.0445358 8.21827709 10.63388633 5.125 7.4375 C2.08361676 4.79277945 2.08361676 4.79277945 -1.875 4.4375 C-3.22049075 6.09436759 -4.55190392 7.76269484 -5.875 9.4375 C-8.56640625 11.421875 -8.56640625 11.421875 -11.4375 13.1875 C-12.38753906 13.78046875 -13.33757812 14.3734375 -14.31640625 14.984375 C-18.11921094 17.14413583 -20.89887137 17.55891508 -25.19921875 17.53515625 C-26.22724609 17.53193359 -27.25527344 17.52871094 -28.31445312 17.52539062 C-29.38630859 17.51701172 -30.45816406 17.50863281 -31.5625 17.5 C-32.64595703 17.49548828 -33.72941406 17.49097656 -34.84570312 17.48632812 C-37.52219085 17.47453743 -40.19856777 17.45808063 -42.875 17.4375 C-42.875 16.7775 -42.875 16.1175 -42.875 15.4375 C-42.06417969 15.46070312 -41.25335938 15.48390625 -40.41796875 15.5078125 C-28.48538898 15.70228994 -18.56823596 14.99754143 -8.875 7.4375 C-7.20999578 5.6154888 -5.69811606 3.7382986 -4.19140625 1.78515625 C-2.875 0.4375 -2.875 0.4375 0 0 Z " fill="#EFEFEF" transform="translate(512.875,89.5625)"/>
<path d="M0 0 C2 3 2 3 2 6 C2.61875 6.309375 3.2375 6.61875 3.875 6.9375 C5.25 7.625 6.625 8.3125 8 9 C8 9.66 8 10.32 8 11 C15.26 11.99 22.52 12.98 30 14 C30 14.33 30 14.66 30 15 C10.42918011 16.48134299 10.42918011 16.48134299 3.8125 11.25 C1.05928529 8.64625929 -0.42997442 6.77748298 -1 3 C-5.91441412 4.43652105 -10.00238358 6.54159615 -14.375 9.125 C-15.33599609 9.68380859 -15.33599609 9.68380859 -16.31640625 10.25390625 C-17.88048477 11.16434002 -19.44065534 12.08148191 -21 13 C-21.33 12.01 -21.66 11.02 -22 10 C-18.75516597 7.21871369 -15.95256515 5.54246445 -12 4 C-11.030625 3.29875 -10.06125 2.5975 -9.0625 1.875 C-5.64423371 -0.21781609 -3.93226461 -0.62558755 0 0 Z " fill="#E9E9E9" transform="translate(22,93)"/>
<path d="M0 0 C0.66 0.99 1.32 1.98 2 3 C1.24609375 5.34375 1.24609375 5.34375 0 8 C-0.9783276 10.75674496 -1.94361604 13.51763004 -2.90234375 16.28125 C-4 19 -4 19 -5.44140625 21.28125 C-7.15373286 24.26816559 -8.08490917 27.15515087 -9.125 30.42236328 C-10.80544289 35.37273047 -12.92456447 40.14263351 -15 44.9375 C-15.43828125 45.97712891 -15.8765625 47.01675781 -16.328125 48.08789062 C-16.97007812 49.57385742 -16.97007812 49.57385742 -17.625 51.08984375 C-18.00914062 51.98566162 -18.39328125 52.88147949 -18.7890625 53.80444336 C-20 56 -20 56 -23 58 C-21.90820296 52.90494713 -20.48240486 48.70506733 -18.0625 44.10546875 C-16.08780046 40.19236929 -14.59155751 36.08007525 -13 32 C-11.98385967 29.43562118 -10.96084073 26.87401224 -9.9375 24.3125 C-9.45152344 23.09175781 -8.96554688 21.87101562 -8.46484375 20.61328125 C-7.02213478 17.05459913 -5.51555574 13.52814857 -4 10 C-3.26382366 8.19033576 -2.53378584 6.37815057 -1.8125 4.5625 C-1.46832031 3.69753906 -1.12414062 2.83257812 -0.76953125 1.94140625 C-0.38861328 0.98041016 -0.38861328 0.98041016 0 0 Z " fill="#E3E3E3" transform="translate(182,66)"/>
<path d="M0 0 C6.81147971 -0.50248621 12.37737716 -0.20722817 18 4 C20.7234169 6.9430473 21.43134899 8.94549175 21.4375 12.9375 C21.30655086 16.12237016 21.02669032 17.9415355 19.6875 20.875 C15.6243279 24.08774073 11.05375358 25.8960595 6 27 C3.15234375 26.6015625 3.15234375 26.6015625 1 26 C3.45096188 23.54903812 5.02133782 23.42027069 8.375 22.6875 C12.1115685 21.7191223 13.74777108 21.23421257 16.625 18.5625 C18.41570072 15.43593371 18.41570072 15.43593371 19 12 C17.69626161 7.82803715 16.08553519 5.72998952 12.3125 3.6875 C8.22322676 1.85908655 4.44865566 1.31776112 0 1 C0 0.67 0 0.34 0 0 Z " fill="#EDEDED" transform="translate(346,83)"/>
<path d="M0 0 C3 1 3 1 4.421875 3.58203125 C5.07929688 5.18111328 5.07929688 5.18111328 5.75 6.8125 C6.19859375 7.87082031 6.6471875 8.92914063 7.109375 10.01953125 C8.02996874 13.10029011 7.90247364 14.05427211 7 17 C2.92512506 17.12366555 -1.14902301 17.21436476 -5.2253418 17.2746582 C-6.61160304 17.29979219 -7.99773187 17.33390592 -9.38354492 17.37719727 C-11.37621037 17.43788396 -13.36984533 17.46354879 -15.36328125 17.48828125 C-16.56251221 17.51446533 -17.76174316 17.54064941 -18.99731445 17.56762695 C-22 17 -22 17 -23.91479492 14.46948242 C-24.2729126 13.65455322 -24.63103027 12.83962402 -25 12 C-24.01 12 -23.02 12 -22 12 C-21.67 12.66 -21.34 13.32 -21 14 C-8.13 14.495 -8.13 14.495 5 15 C3.68 11.37 2.36 7.74 1 4 C0.67 2.68 0.34 1.36 0 0 Z " fill="#F9F9F9" transform="translate(246,117)"/>
<path d="M0 0 C0.33 0 0.66 0 1 0 C1.02578125 1.02996094 1.0515625 2.05992188 1.078125 3.12109375 C1.35567062 10.93122749 2.03153431 18.48973782 3.75 26.125 C3.89469727 26.81005615 4.03939453 27.4951123 4.18847656 28.20092773 C5.28071326 32.70723155 7.01447272 35.79186761 9.98535156 39.35498047 C11 41 11 41 11 45 C10.34 45 9.68 45 9 45 C1.60655913 36.95610978 -1.94869196 22.42336481 -2.01416016 11.67529297 C-1.73450777 7.69409282 -1.01701069 3.85427617 0 0 Z " fill="#E9E9E9" transform="translate(415,60)"/>
<path d="M0 0 C1 2 1 2 0.34326172 4.36083984 C-1.14684774 7.51214748 -2.43561554 9.61553521 -5 12 C-10.31713234 13.27629474 -15.47013323 12.94614119 -20.875 12.625 C-22.34099452 12.57479471 -23.80715369 12.52917493 -25.2734375 12.48828125 C-28.85239917 12.37850666 -32.42515117 12.20625348 -36 12 C-35.6875 9.625 -35.6875 9.625 -35 7 C-34.01 6.34 -33.02 5.68 -32 5 C-32.33 6.65 -32.66 8.3 -33 10 C-24.09 10 -15.18 10 -6 10 C-5.34 8.02 -4.68 6.04 -4 4 C-1.875 1.625 -1.875 1.625 0 0 Z " fill="#FBFBFB" transform="translate(161,122)"/>
<path d="M0 0 C0.495 1.98 0.495 1.98 1 4 C-4.37695284 9.0632071 -9.37451369 13.68725685 -16 17 C-16.63550781 17.3815625 -17.27101563 17.763125 -17.92578125 18.15625 C-23.08562055 21.12190521 -26.18954906 21.24509663 -32 20 C-32 19.67 -32 19.34 -32 19 C-30.948125 18.814375 -29.89625 18.62875 -28.8125 18.4375 C-17.25019251 15.49064641 -8.26796234 8.26796234 0 0 Z " fill="#DEDEDE" transform="translate(528,110)"/>
<path d="M0 0 C2.72470265 0.38924324 3.83173949 0.82199612 5.75390625 2.85546875 C9.14570078 6.09389518 13.1873169 7.60655196 17.41796875 9.53515625 C20 11 20 11 21 14 C27.93 14 34.86 14 42 14 C42 14.33 42 14.66 42 15 C27.702962 15.96077278 16.50456273 16.39047642 5 7 C2.1328125 4.35546875 2.1328125 4.35546875 0 2 C0 1.34 0 0.68 0 0 Z " fill="#DBDBDB" transform="translate(449,93)"/>
<path d="M0 0 C1.45246005 0.01507744 2.90493527 0.02876042 4.35742188 0.04101562 C7.88443457 0.07377139 11.41086785 0.12538336 14.9375 0.1875 C14.9375 0.5175 14.9375 0.8475 14.9375 1.1875 C14.20748779 1.1968457 13.47747559 1.20619141 12.7253418 1.21582031 C9.35792357 1.27012063 5.991807 1.35364882 2.625 1.4375 C1.47708984 1.45167969 0.32917969 1.46585938 -0.85351562 1.48046875 C-7.79743993 1.67718049 -13.42961232 2.62840932 -19.84448242 5.33886719 C-22.0625 6.1875 -22.0625 6.1875 -25.0625 6.1875 C-25.0625 6.8475 -25.0625 7.5075 -25.0625 8.1875 C-27.3725 9.5075 -29.6825 10.8275 -32.0625 12.1875 C-30.29213143 7.84204988 -27.57859231 4.50839397 -23.37158203 2.29980469 C-15.75768128 -0.58274747 -8.0007434 -0.1452024 0 0 Z " fill="#C2C2C2" transform="translate(337.0625,27.8125)"/>
<path d="M0 0 C3.04708845 4.57063267 4.89315991 9.62807401 7 14.6875 C7.45117188 15.75162109 7.90234375 16.81574219 8.3671875 17.91210938 C10.7269809 23.56374475 12.72449161 29.00656003 14 35 C13.01 34.67 12.02 34.34 11 34 C10.248727 32.19011504 9.51648743 30.36995797 8.8828125 28.515625 C7.86183224 25.60628302 6.69293919 22.78055267 5.5 19.9375 C4.85998047 18.39835937 4.85998047 18.39835937 4.20703125 16.828125 C3.50373149 15.18026406 2.78119072 13.53989512 2.01171875 11.921875 C0.05633957 7.80723823 -0.27750052 4.53250847 0 0 Z " fill="#E8E8E8" transform="translate(209,94)"/>
<path d="M0 0 C0.66 0 1.32 0 2 0 C1.95359375 0.94359375 1.9071875 1.8871875 1.859375 2.859375 C1.54837624 13.92204524 2.58865389 23.21618239 10 32 C9.75 34.3125 9.75 34.3125 9 36 C1.49071697 27.68615093 -1.26807682 17.03483526 -1.16796875 6.04296875 C-0.99481258 3.93690652 -0.57065378 2.03152747 0 0 Z " fill="#E6E6E6" transform="translate(440,58)"/>
<path d="M0 0 C9.3558905 -1.1400795 14.61150028 1.40773198 22 7 C22.76441406 7.52980469 23.52882813 8.05960938 24.31640625 8.60546875 C24.87199219 9.06566406 25.42757813 9.52585937 26 10 C26 10.66 26 11.32 26 12 C28.31 11.34 30.62 10.68 33 10 C32.67 10.99 32.34 11.98 32 13 C29.30028774 13.84366008 27.75775992 14.30293575 25 14 C22.7482324 12.47829768 20.91858957 10.73420875 18.9609375 8.8515625 C13.46077163 3.65817879 7.32099086 2.11950766 0 1 C0 0.67 0 0.34 0 0 Z " fill="#F3F3F3" transform="translate(483,28)"/>
<path d="M0 0 C6.78982507 0.37035409 11.26884891 2.40476401 17 6 C17 6.66 17 7.32 17 8 C21.29 8.66 25.58 9.32 30 10 C22.73481641 11.8162959 16.31445677 9.45727987 9.89453125 5.953125 C7.02416706 4.50906549 4.11048488 3.77762122 1 3 C0.67 3.66 0.34 4.32 0 5 C-0.33 4.01 -0.66 3.02 -1 2 C-0.67 1.34 -0.34 0.68 0 0 Z " fill="#DADADA" transform="translate(285,98)"/>
<path d="M0 0 C15.51250589 -0.56129642 30.43816003 -1.08279391 45 5 C45.495 5.99 45.495 5.99 46 7 C40.7271289 6.44374107 35.977986 5.49893325 30.875 4 C20.76239152 1.22447487 10.42678185 1.16724374 0 1 C0 0.67 0 0.34 0 0 Z " fill="#F5F5F5" transform="translate(326,29)"/>
<path d="M0 0 C1 2 1 2 0.3125 4.3125 C-0.28019299 7.08509771 -0.28019299 7.08509771 1.43359375 9.4921875 C4.87792095 12.85787709 8.16342366 13.65254496 12.75 14.8125 C13.93916016 15.13637695 13.93916016 15.13637695 15.15234375 15.46679688 C17.09725199 15.99403104 19.04810736 16.49924152 21 17 C21 17.33 21 17.66 21 18 C12.89242686 18.69361367 6.78158578 17.71127779 0 13 C-2.71232939 8.93150591 -2.30699887 6.83523216 -2 2 C-1.34 1.34 -0.68 0.68 0 0 Z " fill="#E9E9E9" transform="translate(307,38)"/>
<path d="M0 0 C6.28863273 3.94867637 11.27741723 7.68767649 13.5078125 15.04296875 C14.60236855 21.61899199 14.20587936 28.35848432 14 35 C13.67 35 13.34 35 13 35 C12.89042969 33.77023438 12.78085937 32.54046875 12.66796875 31.2734375 C12.50843514 29.64056405 12.34824407 28.00775474 12.1875 26.375 C12.11724609 25.56675781 12.04699219 24.75851563 11.97460938 23.92578125 C11.30106439 17.29809862 9.51261034 12.35393186 5 7.3125 C4.505 6.75175781 4.01 6.19101563 3.5 5.61328125 C2.03478617 4.03741325 0.53279889 2.50998938 -1 1 C-0.67 0.67 -0.34 0.34 0 0 Z " fill="#D8D8D8" transform="translate(379,67)"/>
<path d="M0 0 C0.66 0.33 1.32 0.66 2 1 C0.59111941 5.48280187 -1.54536655 7.85942414 -5 11 C-5.928125 11.928125 -6.85625 12.85625 -7.8125 13.8125 C-11.97759898 16.67090126 -14.060353 16.42583164 -19 16 C-18.67 15.34 -18.34 14.68 -18 14 C-16.62070406 13.54991396 -15.22019291 13.16383374 -13.8125 12.8125 C-8.54658873 11.17161191 -6.1220346 8.4028693 -3 4 C-2.38125 3.195625 -1.7625 2.39125 -1.125 1.5625 C-0.75375 1.046875 -0.3825 0.53125 0 0 Z " fill="#F1F1F1" transform="translate(65,91)"/>
<path d="M0 0 C0.33 0 0.66 0 1 0 C1.60568652 5.90544359 -0.45083771 9.8550444 -3 15 C-3.75796875 16.58941406 -3.75796875 16.58941406 -4.53125 18.2109375 C-8.72296238 26.86148119 -8.72296238 26.86148119 -11 28 C-9.91263229 22.92561737 -8.50598794 18.7318087 -6.08203125 14.15625 C-4.44399143 10.89199736 -3.15384143 7.50351222 -1.83203125 4.1015625 C-1 2 -1 2 0 0 Z " fill="#DADADA" transform="translate(170,96)"/>
<path d="M0 0 C6.05303105 -0.26570232 11.52911806 0.74090637 17.4375 2 C18.82098633 2.28617188 18.82098633 2.28617188 20.23242188 2.578125 C22.48963929 3.04594208 24.7453418 3.52002747 27 4 C27 4.33 27 4.66 27 5 C17.56337194 7.13309529 9.09323481 4.45791614 0 2 C0 1.34 0 0.68 0 0 Z " fill="#F6F6F6" transform="translate(294,130)"/>
<path d="M0 0 C1.8671875 0.19921875 1.8671875 0.19921875 4 1 C5.1953125 3.14453125 5.1953125 3.14453125 6.125 5.8125 C7.42536909 9.49699412 7.42536909 9.49699412 9.078125 13.02734375 C10.14896736 15.31876491 10.40331574 17.23757835 10.625 19.75 C10.69976562 20.54921875 10.77453125 21.3484375 10.8515625 22.171875 C10.90054688 22.77515625 10.94953125 23.3784375 11 24 C8.31902662 22.65951331 8.22921943 21.46689611 7.1875 18.6875 C5.21429019 13.53481626 3.1022816 8.45268391 0.953125 3.37109375 C0 1 0 1 0 0 Z " fill="#EBEBEB" transform="translate(199,77)"/>
<path d="M0 0 C0.33 0 0.66 0 1 0 C0.32978793 6.33829128 -0.47393502 12.63726741 -1.4375 18.9375 C-1.55931641 19.78634766 -1.68113281 20.63519531 -1.80664062 21.50976562 C-1.93103516 22.31994141 -2.05542969 23.13011719 -2.18359375 23.96484375 C-2.29243896 24.6930835 -2.40128418 25.42132324 -2.51342773 26.17163086 C-3 28 -3 28 -5 30 C-5.72384449 19.20265295 -3.39242335 10.17727006 0 0 Z " fill="#F4F4F4" transform="translate(418,41)"/>
<path d="M0 0 C5 5 10 10 15 15 C13.25390625 15.6953125 13.25390625 15.6953125 11 16 C6.4261777 13.17318468 2.14535187 8.9611262 0 4 C0 2.68 0 1.36 0 0 Z " fill="#EBEBEB" transform="translate(0,110)"/>
<path d="M0 0 C0.33 0 0.66 0 1 0 C1.185625 0.804375 1.37125 1.60875 1.5625 2.4375 C4.11878739 8.77264701 8.38073845 14.10117315 14 18 C13.01 18.33 12.02 18.66 11 19 C6.07287887 15.83328765 1.56902669 11.24975019 -1 6 C-0.75 2.625 -0.75 2.625 0 0 Z " fill="#EBEBEB" transform="translate(281,53)"/>
<path d="M0 0 C1.49484017 2.98968034 0.37703537 4.74650788 -0.625 7.875 C-2.23307891 12.56429305 -3.4959621 15.49775672 -8 18 C-8.66 17.67 -9.32 17.34 -10 17 C-9.4225 16.401875 -8.845 15.80375 -8.25 15.1875 C-5.58294517 11.40917232 -4.34502223 7.702796 -2.9296875 3.328125 C-2 1 -2 1 0 0 Z " fill="#DDDDDD" transform="translate(93,94)"/>
<path d="M0 0 C0.33 0 0.66 0 1 0 C1.3125 2.3125 1.3125 2.3125 1 5 C-1.3125 6.5625 -1.3125 6.5625 -4 8 C-4.45375 8.66 -4.9075 9.32 -5.375 10 C-7.77038341 12.94816419 -10.47018033 13.66799258 -14 15 C-12.45228201 10.94071568 -9.81099911 9.00518575 -6.4375 6.375 C-2.66438611 3.64991295 -2.66438611 3.64991295 0 0 Z " fill="#E8E8E8" transform="translate(528,24)"/>
<path d="M0 0 C3.40167648 0.25197604 4.13926066 1.16068537 6.4375 3.8125 C6.85257812 4.35003906 7.26765625 4.88757813 7.6953125 5.44140625 C9.12078739 7.24868073 9.12078739 7.24868073 11.8125 9.25 C12.534375 9.8275 13.25625 10.405 14 11 C14 11.66 14 12.32 14 13 C9.5014093 11.6016814 7.25028785 9.46757886 4.1875 5.9375 C3.39730469 5.03902344 2.60710937 4.14054687 1.79296875 3.21484375 C0 1 0 1 0 0 Z " fill="#E6E6E6" transform="translate(424,105)"/>
<path d="M0 0 C2.79769911 1.39884955 3.08973603 3.43863156 4.19921875 6.2265625 C4.98954867 8.17228301 4.98954867 8.17228301 6.75 10.1875 C8 12 8 12 7.6875 14.25 C7.460625 14.8275 7.23375 15.405 7 16 C3.4185218 11.80102556 0.18168487 7.78583462 -0.1875 2.125 C-0.125625 1.42375 -0.06375 0.7225 0 0 Z " fill="#EFEFEF" transform="translate(442,78)"/>
<path d="M0 0 C-5.30750428 3.29065265 -9.43990659 5.54175334 -15.875 4.5625 C-16.57625 4.376875 -17.2775 4.19125 -18 4 C-18 3.67 -18 3.34 -18 3 C-17.15695312 2.79503906 -16.31390625 2.59007812 -15.4453125 2.37890625 C-14.34960938 2.10949219 -13.25390625 1.84007812 -12.125 1.5625 C-11.03445313 1.29566406 -9.94390625 1.02882812 -8.8203125 0.75390625 C-2.82714844 -0.84814453 -2.82714844 -0.84814453 0 0 Z " fill="#D8D8D8" transform="translate(365,131)"/>
<path d="M0 0 C-2.37769817 3.07119347 -4.2264073 4.30473692 -8 4.875 C-11.29301224 5.2737632 -13.13410194 4.65045022 -16 3 C-13.71068726 2.30364247 -11.4191243 1.61765623 -9.125 0.9375 C-8.47402344 0.73833984 -7.82304688 0.53917969 -7.15234375 0.33398438 C-2.2265625 -1.11328125 -2.2265625 -1.11328125 0 0 Z " fill="#D4D4D4" transform="translate(67,128)"/>
<path d="M0 0 C1.07079018 3.21237053 0.95713639 4.9395555 -0.3125 8.0625 C-0.57675781 8.73410156 -0.84101563 9.40570313 -1.11328125 10.09765625 C-2 12 -2 12 -4 15 C-5.05827997 12.26611008 -5.16274918 10.47455083 -4.2109375 7.69921875 C-1.43230659 1.43230659 -1.43230659 1.43230659 0 0 Z " fill="#E5E5E5" transform="translate(133,115)"/>
<path d="M0 0 C0.71484375 1.546875 0.71484375 1.546875 1 4 C-0.05391226 6.53857885 -1.13965574 8.84495527 -2.4375 11.25 C-2.77587891 11.8996875 -3.11425781 12.549375 -3.46289062 13.21875 C-4.29786887 14.81814494 -5.14753114 16.40985859 -6 18 C-6.95537629 15.44653975 -7.15729668 14.37100779 -6.07421875 11.81640625 C-5.38779297 10.70072266 -5.38779297 10.70072266 -4.6875 9.5625 C-2.82910105 6.4341951 -1.22183841 3.44336278 0 0 Z " fill="#F6F6F6" transform="translate(161,49)"/>
<path d="M0 0 C0.33 0.66 0.66 1.32 1 2 C0.0625 4.125 0.0625 4.125 -1 6 C-4.57804656 6.19878036 -6.99208089 6.04108797 -10 4 C-10.33 3.01 -10.66 2.02 -11 1 C-9.01432292 1.32552083 -7.02864583 1.65104167 -5.04296875 1.9765625 C-2.68244176 2.19577848 -2.68244176 2.19577848 0 0 Z " fill="#E5E5E5" transform="translate(382,33)"/>
<path d="M0 0 C7.28695785 -0.474377 11.97181491 -0.28670939 18 4 C17.67 4.66 17.34 5.32 17 6 C16.30519531 5.70351563 15.61039062 5.40703125 14.89453125 5.1015625 C11.85340716 3.94421163 8.84912937 3.13934996 5.6875 2.375 C4.61886719 2.11460938 3.55023438 1.85421875 2.44921875 1.5859375 C1.64097656 1.39257812 0.83273437 1.19921875 0 1 C0 0.67 0 0.34 0 0 Z " fill="#EDEDED" transform="translate(483,28)"/>
<path d="M0 0 C0.33 0.66 0.66 1.32 1 2 C0.7525 2.7425 0.505 3.485 0.25 4.25 C-0.2811336 6.93079195 -0.2811336 6.93079195 1.04296875 8.58984375 C2.34174758 10.07780045 3.66982033 11.5400467 5 13 C5 13.66 5 14.32 5 15 C1.34683329 13.75023244 0.21934164 13.32901247 -2 10 C-2.37167184 7.23979004 -2.17850636 4.81147524 -2 2 C-1.34 1.34 -0.68 0.68 0 0 Z " fill="#F1F1F1" transform="translate(307,38)"/>
<path d="M0 0 C7.59 0.33 15.18 0.66 23 1 C23 1.33 23 1.66 23 2 C19.73063506 2.25485425 16.45983259 2.47442831 13.1875 2.6875 C12.25873047 2.76033203 11.32996094 2.83316406 10.37304688 2.90820312 C9.0340332 2.99038086 9.0340332 2.99038086 7.66796875 3.07421875 C6.84578857 3.13182373 6.0236084 3.18942871 5.17651367 3.2487793 C3 3 3 3 0 0 Z " fill="#C8C8C8" transform="translate(27,131)"/>
<path d="M0 0 C0.33 0.66 0.66 1.32 1 2 C0.5875 2.680625 0.175 3.36125 -0.25 4.0625 C-2.51035956 7.85667498 -3.70846262 11.79563364 -5 16 C-5.33 16 -5.66 16 -6 16 C-5.46060633 9.74303344 -4.63698228 4.63698228 0 0 Z " fill="#EFEFEF" transform="translate(177,83)"/>
<path d="M0 0 C0.33 0 0.66 0 1 0 C1.33 6.93 1.66 13.86 2 21 C1.34 20.01 0.68 19.02 0 18 C-0.38929688 17.42765625 -0.77859375 16.8553125 -1.1796875 16.265625 C-2.39566394 12.90721389 -1.70665684 10.23994104 -1.125 6.75 C-0.92132813 5.48671875 -0.71765625 4.2234375 -0.5078125 2.921875 C-0.34023438 1.95765625 -0.17265625 0.9934375 0 0 Z " fill="#AFAFAF" transform="translate(415,60)"/>
<path d="M0 0 C0.66666667 1.33333333 1.33333333 2.66666667 2 4 C2.556875 5.03125 3.11375 6.0625 3.6875 7.125 C4.120625 8.07375 4.55375 9.0225 5 10 C4.67 10.66 4.34 11.32 4 12 C1.36750651 9.54300608 -0.78137264 7.43431346 -2 4 C-1 1 -1 1 0 0 Z " fill="#DBDBDB" transform="translate(197,66)"/>
<path d="M0 0 C0.93045933 2.55144824 1.08564091 3.74006478 0.22265625 6.359375 C-0.16019531 7.14828125 -0.54304687 7.9371875 -0.9375 8.75 C-1.50791016 9.94882813 -1.50791016 9.94882813 -2.08984375 11.171875 C-2.39019531 11.77515625 -2.69054687 12.3784375 -3 13 C-3.66 12.67 -4.32 12.34 -5 12 C-4.54965877 10.37276701 -4.08944646 8.74826336 -3.625 7.125 C-3.36976563 6.22007813 -3.11453125 5.31515625 -2.8515625 4.3828125 C-2 2 -2 2 0 0 Z " fill="#F7F7F7" transform="translate(138,103)"/>
<path d="M0 0 C1.43472656 -0.02126953 1.43472656 -0.02126953 2.8984375 -0.04296875 C5.65510017 0.19004428 7.27447395 0.77829836 9.625 2.1875 C7.54314549 2.41012606 5.45939574 2.61507926 3.375 2.8125 C2.21484375 2.92851562 1.0546875 3.04453125 -0.140625 3.1640625 C-3.31372091 3.18705595 -4.75817244 2.88455154 -7.375 1.1875 C-4.801671 -0.0991645 -2.87276962 0.01925449 0 0 Z " fill="#C1C1C1" transform="translate(478.375,25.8125)"/>
<path d="M0 0 C1.21236328 0.01353516 1.21236328 0.01353516 2.44921875 0.02734375 C3.37154297 0.04474609 3.37154297 0.04474609 4.3125 0.0625 C1.68825342 1.81199772 -0.24477216 2.71639981 -3.1875 3.6875 C-4.34765625 4.07808594 -4.34765625 4.07808594 -5.53125 4.4765625 C-7.6875 5.0625 -7.6875 5.0625 -10.6875 5.0625 C-7.65508091 0.58607181 -5.29115239 -0.07668337 0 0 Z " fill="#F2F2F2" transform="translate(470.6875,27.9375)"/>
<path d="M0 0 C0.66 0 1.32 0 2 0 C-0.89066059 9.59453303 -0.89066059 9.59453303 -4 13 C-5 10 -5 10 -4.00390625 7.51953125 C-3.52824219 6.62621094 -3.05257812 5.73289062 -2.5625 4.8125 C-2.08941406 3.91144531 -1.61632812 3.01039062 -1.12890625 2.08203125 C-0.75636719 1.39496094 -0.38382813 0.70789062 0 0 Z " fill="#E8E8E8" transform="translate(166,38)"/>
<path d="M0 0 C0.66 0.33 1.32 0.66 2 1 C1.0625 2.875 1.0625 2.875 -1 5 C-3.95485056 5.95351561 -6.9369519 6.51196718 -10 7 C-9.67 6.34 -9.34 5.68 -9 5 C-8.34 5 -7.68 5 -7 5 C-7 4.34 -7 3.68 -7 3 C-4.69631264 1.93347808 -2.35981813 0.93578995 0 0 Z " fill="#E4E4E4" transform="translate(372,126)"/>
<path d="M0 0 C0.66 0.33 1.32 0.66 2 1 C1.360625 1.268125 0.72125 1.53625 0.0625 1.8125 C-2.33131686 2.88667752 -2.33131686 2.88667752 -3 6 C-5.21701147 7.58965571 -7.57862473 8.72327486 -10 10 C-8.4411666 6.17377257 -6.04566418 3.74852621 -3 1 C-2.01 0.67 -1.02 0.34 0 0 Z " fill="#CECECE" transform="translate(315,30)"/>
<path d="M0 0 C0.99 0.99 1.98 1.98 3 3 C-2.28 2.34 -7.56 1.68 -13 1 C-13 0.67 -13 0.34 -13 0 C-8.35316375 -1.30692269 -4.68300074 -0.90638724 0 0 Z " fill="#E3E3E3" transform="translate(362,5)"/>
<path d="M0 0 C6.13053511 -0.32712342 10.62669111 -0.39366878 16 3 C16 3.66 16 4.32 16 5 C15.29488281 4.69320312 14.58976562 4.38640625 13.86328125 4.0703125 C10.95734427 2.98405502 8.24245848 2.3902942 5.1875 1.875 C4.21167969 1.70742187 3.23585938 1.53984375 2.23046875 1.3671875 C1.49441406 1.24601562 0.75835937 1.12484375 0 1 C0 0.67 0 0.34 0 0 Z " fill="#F5F5F5" transform="translate(346,83)"/>
<path d="M0 0 C1.46224799 0.42423244 2.91973412 0.86490245 4.375 1.3125 C5.18710937 1.55613281 5.99921875 1.79976562 6.8359375 2.05078125 C9 3 9 3 11 6 C7.80389448 6 6.58282374 5.45328458 3.8125 4 C3.09707031 3.62875 2.38164062 3.2575 1.64453125 2.875 C1.10183594 2.58625 0.55914062 2.2975 0 2 C0 1.34 0 0.68 0 0 Z " fill="#EFEFEF" transform="translate(368,62)"/>
<path d="M0 0 C0.33 0 0.66 0 1 0 C0.88490339 1.41750563 0.75746342 2.83401169 0.625 4.25 C0.55539062 5.03890625 0.48578125 5.8278125 0.4140625 6.640625 C-0.01507113 9.085877 -0.78600638 10.84836903 -2 13 C-3.18771723 9.57056481 -2.80226223 7.62215325 -1.5625 4.25 C-1.27503906 3.45078125 -0.98757813 2.6515625 -0.69140625 1.828125 C-0.46324219 1.22484375 -0.23507812 0.6215625 0 0 Z " fill="#FAFAFA" transform="translate(418,41)"/>
<path d="M0 0 C0.33 0 0.66 0 1 0 C1.3125 2.3125 1.3125 2.3125 1 5 C-1.3125 6.875 -1.3125 6.875 -4 8 C-4.99 7.67 -5.98 7.34 -7 7 C-5.47005208 5.76302083 -3.94010417 4.52604167 -2.41015625 3.2890625 C-0.86733563 2.0333609 -0.86733563 2.0333609 0 0 Z " fill="#E2E2E2" transform="translate(528,24)"/>
<path d="M0 0 C0 0.33 0 0.66 0 1 C-4.41225737 2.47075246 -7.48281619 3.36884358 -12 2 C-8.24587786 -1.75412214 -4.98458941 -1.01957511 0 0 Z " fill="#E8E8E8" transform="translate(359,107)"/>
<path d="M0 0 C4 1 4 1 6 4 C6 5.32 6 6.64 6 8 C5.34 8 4.68 8 4 8 C2.68 5.36 1.36 2.72 0 0 Z " fill="#DFDFDF" transform="translate(420,97)"/>
<path d="M0 0 C0.33 0 0.66 0 1 0 C0.25 7.625 0.25 7.625 -2 11 C-2.93750716 7.33519927 -3.28668844 5.59943946 -1.625 2.125 C-1.08875 1.42375 -0.5525 0.7225 0 0 Z " fill="#E7E7E7" transform="translate(174,18)"/>
<path d="M0 0 C1.79068573 2.6860286 2.66055791 4.6626589 3.625 7.6875 C3.88539063 8.49574219 4.14578125 9.30398437 4.4140625 10.13671875 C4.60742188 10.75160156 4.80078125 11.36648437 5 12 C3.046875 11.1796875 3.046875 11.1796875 1 10 C0.0987913 6.54536666 0 3.58088792 0 0 Z " fill="#CCCCCC" transform="translate(209,94)"/>
<path d="M0 0 C0.66 0.66 1.32 1.32 2 2 C-2.51617599 2.07654536 -6.59085217 2.10228696 -11 1 C-11 0.67 -11 0.34 -11 0 C-3.2797546 -1.33619632 -3.2797546 -1.33619632 0 0 Z " fill="#BEBEBE" transform="translate(332,56)"/>
<path d="M0 0 C3.3 0.33 6.6 0.66 10 1 C10 1.33 10 1.66 10 2 C6.7 2.33 3.4 2.66 0 3 C0 2.01 0 1.02 0 0 Z " fill="#D3D3D3" transform="translate(311,133)"/>
<path d="M0 0 C-1.28519565 2.86697492 -2.57129254 4.97607712 -5 7 C-5.66 7 -6.32 7 -7 7 C-3.86206897 0 -3.86206897 0 0 0 Z " fill="#F5F5F5" transform="translate(445,10)"/>
<path d="M0 0 C2.31 0 4.62 0 7 0 C7.33 0.99 7.66 1.98 8 3 C5.6568787 2.74438677 3.32156597 2.40729228 1 2 C0.67 1.34 0.34 0.68 0 0 Z " fill="#F0F0F0" transform="translate(303,132)"/>
<path d="M0 0 C0.99 0 1.98 0 3 0 C3.33 0.66 3.66 1.32 4 2 C6.52733235 2.65555119 6.52733235 2.65555119 9 3 C6 5 6 5 3.9375 4.875 C1.42716583 3.7413007 0.97308798 2.51381062 0 0 Z " fill="#F4F4F4" transform="translate(221,129)"/>
<path d="M0 0 C0.33 0.66 0.66 1.32 1 2 C0.06694014 4.71435596 -0.62673377 5.78043163 -3.125 7.25 C-3.74375 7.4975 -4.3625 7.745 -5 8 C-3.375 2.25 -3.375 2.25 0 0 Z " fill="#EAEAEA" transform="translate(161,122)"/>
<path d="M0 0 C3.83736322 0.95934081 4.59660228 1.23609263 7 4 C6.67 4.99 6.34 5.98 6 7 C4.02 4.69 2.04 2.38 0 0 Z " fill="#F5F5F5" transform="translate(424,105)"/>
<path d="M0 0 C0.93065133 2.60582371 1.14917407 3.64198224 0.0625 6.25 C-0.4634375 7.11625 -0.4634375 7.11625 -1 8 C-1.66 6.68 -2.32 5.36 -3 4 C-2.01 2.68 -1.02 1.36 0 0 Z " fill="#E7E7E7" transform="translate(141,97)"/>
<path d="M0 0 C1 2 1 2 0.0625 5.125 C-0.288125 6.07375 -0.63875 7.0225 -1 8 C-1.66 8 -2.32 8 -3 8 C-2.74438677 5.6568787 -2.40729228 3.32156597 -2 1 C-1.34 0.67 -0.68 0.34 0 0 Z " fill="#F1F1F1" transform="translate(93,94)"/>
<path d="M0 0 C0.66 0.99 1.32 1.98 2 3 C1.3125 5.625 1.3125 5.625 0 8 C-0.99 8.33 -1.98 8.66 -3 9 C-2.01 6.03 -1.02 3.06 0 0 Z " fill="#D2D2D2" transform="translate(182,66)"/>
<path d="M0 0 C0.66 0.33 1.32 0.66 2 1 C0.35 2.65 -1.3 4.3 -3 6 C-3.99 5.67 -4.98 5.34 -6 5 C-4.06745228 2.9754262 -2.36841312 1.57894208 0 0 Z " fill="#D6D6D6" transform="translate(461,30)"/>
</svg>
